<svg width="61" height="10" viewBox="0 0 61 10" version="1.1" xmlns="http://www.w3.org/2000/svg" xmlns:xlink="http://www.w3.org/1999/xlink" xmlns:figma="http://www.figma.com/figma/ns">
<title>Group</title>
<desc>Created using Figma</desc>
<g id="Canvas" transform="translate(-443 -667)" figma:type="canvas">
<g id="Group" figma:type="frame">
<g id="Group" figma:type="frame">
<g id="Vector" figma:type="vector">
<use xlink:href="#path0_stroke" transform="matrix(-1 0 0 1 504 669)" fill="#F2994A"/>
</g>
</g>
</g>
</g>
<defs>
<path id="path0_stroke" d="M 0 1.5C 2.40017 1.5 3.54243 2.58837 5.04814 4.06939C 6.59243 5.58837 8.50017 7.5 12.2 7.5L 12.2 4.5C 9.79983 4.5 8.65757 3.41163 7.15186 1.93061C 5.60756 0.411633 3.69983 -1.5 0 -1.5L 0 1.5ZM 12.2 7.5C 15.8998 7.5 17.8076 5.58837 19.3519 4.06939C 20.8576 2.58837 21.9998 1.5 24.4 1.5L 24.4 -1.5C 20.7002 -1.5 18.7924 0.411633 17.2481 1.93061C 15.7424 3.41163 14.6002 4.5 12.2 4.5L 12.2 7.5ZM 24.4 1.5C 26.8002 1.5 27.9424 2.58837 29.4481 4.06939C 30.9924 5.58837 32.9002 7.5 36.6 7.5L 36.6 4.5C 34.1998 4.5 33.0576 3.41163 31.5519 1.93061C 30.0076 0.411633 28.0998 -1.5 24.4 -1.5L 24.4 1.5ZM 36.6 7.5C 40.2998 7.5 42.2076 5.58837 43.7519 4.06939C 45.2576 2.58837 46.3998 1.5 48.8 1.5L 48.8 -1.5C 45.1002 -1.5 43.1924 0.411633 41.6481 1.93061C 40.1424 3.41163 39.0002 4.5 36.6 4.5L 36.6 7.5ZM 48.8 1.5C 51.2002 1.5 52.3424 2.58837 53.8481 4.06939C 55.3924 5.58837 57.3002 7.5 61 7.5L 61 4.5C 58.5998 4.5 57.4576 3.41163 55.9519 1.93061C 54.4076 0.411633 52.4998 -1.5 48.8 -1.5L 48.8 1.5Z"/>
</defs>
</svg>
