<svg id="Layer_1" viewBox="0 0 100 10.35">
    <defs>
        <style>.cls-1{fill:url(#linear-gradient);}</style>
        <linearGradient id="linear-gradient" x1="20" y1="5.18" x2="80" y2="5.18" gradientUnits="userSpaceOnUse">
            <stop offset="0" stop-color="#ffc40c"/>
            <stop offset="1" stop-color="#f26522"/>
        </linearGradient>
    </defs>
    <path class="cls-1"
          d="M79,9.18c-3.32,0-5-1.74-6.52-3.27s-2.6-2.67-5.08-2.67S63.7,4.47,62.31,5.9s-3.2,3.27-6.52,3.27-5-1.74-6.51-3.27-2.6-2.67-5.08-2.67S40.51,4.47,39.12,5.9s-3.2,3.27-6.51,3.27-5-1.74-6.51-3.27S23.49,3.24,21,3.24a1,1,0,0,1,0-2.06c3.32,0,5,1.74,6.51,3.27s2.6,2.67,5.08,2.67,3.68-1.24,5.08-2.67,3.19-3.27,6.51-3.27,5,1.74,6.51,3.27,2.6,2.67,5.08,2.67,3.69-1.24,5.08-2.67,3.2-3.27,6.52-3.27,5,1.74,6.52,3.27S76.51,7.12,79,7.12a1,1,0,0,1,0,2.06Z"/>
</svg>