<svg id="Layer_1" data-name="Layer 1" xmlns="http://www.w3.org/2000/svg" xmlns:xlink="http://www.w3.org/1999/xlink" viewBox="0 0 45.15 48.13"><defs><style>.cls-1{fill:none;}.cls-2{clip-path:url(#clip-path);}.cls-3{fill:#f26522;}.cls-4{fill:#f26622;}.cls-5{fill:#f26722;}.cls-6{fill:#f26822;}.cls-7{fill:#f26922;}.cls-8{fill:#f26a21;}.cls-9{fill:#f36b21;}.cls-10{fill:#f36c21;}.cls-11{fill:#f36d21;}.cls-12{fill:#f36e21;}.cls-13{fill:#f36f21;}.cls-14{fill:#f37021;}.cls-15{fill:#f37121;}.cls-16{fill:#f37221;}.cls-17{fill:#f37321;}.cls-18{fill:#f37421;}.cls-19{fill:#f47421;}.cls-20{fill:#f47521;}.cls-21{fill:#f47621;}.cls-22{fill:#f47721;}.cls-23{fill:#f47820;}.cls-24{fill:#f47920;}.cls-25{fill:#f47a20;}.cls-26{fill:#f47b20;}.cls-27{fill:#f47c20;}.cls-28{fill:#f47d20;}.cls-29{fill:#f57e20;}.cls-30{fill:#f57f20;}.cls-31{fill:#f58020;}.cls-32{fill:#f58120;}.cls-33{fill:#f58220;}.cls-34{fill:#f58320;}.cls-35{fill:#f5831f;}.cls-36{fill:#f5841f;}.cls-37{fill:#f6851f;}.cls-38{fill:#f6861f;}.cls-39{fill:#f6871f;}.cls-40{fill:#f6881f;}.cls-41{fill:#f6891f;}.cls-42{fill:#f68a1f;}.cls-43{fill:#f68b1f;}.cls-44{fill:#f68c1f;}.cls-45{fill:#f78d1e;}.cls-46{fill:#f78e1e;}.cls-47{fill:#f78f1e;}.cls-48{fill:#f7901e;}.cls-49{fill:#f7911e;}.cls-50{fill:#f7921e;}.cls-51{fill:#f7931e;}.cls-52{fill:#f7941e;}.cls-53{fill:#f8941d;}.cls-54{fill:#f8951d;}.cls-55{fill:#f8961d;}.cls-56{fill:#f8971d;}.cls-57{fill:#f8981d;}.cls-58{fill:#f8991d;}.cls-59{fill:#f89a1c;}.cls-60{fill:#f99b1c;}.cls-61{fill:#f99c1c;}.cls-62{fill:#f99d1c;}.cls-63{fill:#f99e1c;}.cls-64{fill:#f99f1b;}.cls-65{fill:#f9a01b;}.cls-66{fill:#f9a11b;}.cls-67{fill:#faa21b;}.cls-68{fill:#faa31b;}.cls-69{fill:#faa31a;}.cls-70{fill:#faa41a;}.cls-71{fill:#faa51a;}.cls-72{fill:#faa61a;}.cls-73{fill:#faa71a;}.cls-74{fill:#faa819;}.cls-75{fill:#fba819;}.cls-76{fill:#fba919;}.cls-77{fill:#fbaa19;}.cls-78{fill:#fbab19;}.cls-79{fill:#fbab18;}.cls-80{fill:#fbac18;}.cls-81{fill:#fbad18;}.cls-82{fill:#fbae18;}.cls-83{fill:#fbae17;}.cls-84{fill:#fcaf17;}.cls-85{fill:#fcb017;}.cls-86{fill:#fcb116;}.cls-87{fill:#fcb216;}.cls-88{fill:#fcb316;}.cls-89{clip-path:url(#clip-path-109);}.cls-90{fill:#fcb315;}.cls-91{fill:#fcb415;}.cls-92{fill:#fdb515;}.cls-93{fill:#fdb614;}.cls-94{fill:#fdb714;}.cls-95{fill:#fdb813;}.cls-96{fill:#fdb913;}.cls-97{fill:#fdba12;}.cls-98{fill:#febb12;}.cls-99{fill:#febc12;}.cls-100{fill:#febc11;}.cls-101{fill:#febd11;}.cls-102{fill:#febe10;}.cls-103{fill:#febf10;}.cls-104{fill:#febf0f;}.cls-105{fill:#fec00f;}.cls-106{fill:#fec10e;}.cls-107{fill:#ffc20e;}.cls-108{fill:#ffc20d;}.cls-109{fill:#ffc30d;}.cls-110{fill:#ffc40c;}.cls-111{clip-path:url(#clip-path-132);}.cls-112{clip-path:url(#clip-path-258);}.cls-113{clip-path:url(#clip-path-367);}.cls-114{fill:#425569;}.cls-115{clip-path:url(#clip-path-368);}.cls-116{fill:#425669;}.cls-117{fill:#42566a;}.cls-118{fill:#43566a;}.cls-119{fill:#43576a;}.cls-120{fill:#43576b;}.cls-121{fill:#43586b;}.cls-122{fill:#44586b;}.cls-123{fill:#44586c;}.cls-124{fill:#44596c;}.cls-125{fill:#445a6c;}.cls-126{fill:#455a6d;}.cls-127{fill:#455b6d;}.cls-128{fill:#455b6e;}.cls-129{fill:#465c6e;}.cls-130{fill:#465c6f;}.cls-131{fill:#465d6f;}.cls-132{fill:#475e6f;}.cls-133{fill:#475e70;}.cls-134{fill:#475f70;}.cls-135{fill:#475f71;}.cls-136{fill:#485f71;}.cls-137{fill:#486071;}.cls-138{fill:#486072;}.cls-139{fill:#486172;}.cls-140{fill:#496172;}.cls-141{fill:#496273;}.cls-142{fill:#496373;}.cls-143{fill:#496374;}.cls-144{fill:#4a6374;}.cls-145{fill:#4a6474;}.cls-146{fill:#4a6475;}.cls-147{fill:#4a6575;}.cls-148{fill:#4b6676;}.cls-149{fill:#4b6777;}.cls-150{fill:#4c6877;}.cls-151{fill:#4c6878;}.cls-152{fill:#4c6978;}.cls-153{fill:#4c6979;}.cls-154{fill:#4d6a79;}.cls-155{fill:#4d6b7a;}.cls-156{fill:#4d6c7b;}.cls-157{fill:#4e6c7b;}.cls-158{fill:#4e6d7b;}.cls-159{fill:#4e6d7c;}.cls-160{fill:#4e6e7c;}.cls-161{fill:#4f6e7c;}.cls-162{fill:#4f6e7d;}.cls-163{fill:#4f6f7d;}.cls-164{fill:#4f6f7e;}.cls-165{fill:#4f707e;}.cls-166{fill:#50717e;}.cls-167{fill:#50717f;}.cls-168{fill:#50727f;}.cls-169{fill:#507280;}.cls-170{fill:#517380;}.cls-171{fill:#517381;}.cls-172{fill:#517481;}.cls-173{fill:#517582;}.cls-174{fill:#527582;}.cls-175{fill:#527683;}.cls-176{fill:#527783;}.cls-177{fill:#537784;}.cls-178{fill:#537884;}.cls-179{fill:#537885;}</style><clipPath id="clip-path"><path class="cls-1" d="M21,41.67A12.86,12.86,0,1,0,43.27,28.75c-2.25-3.91-1,.83-14.27,1.05C22.23,41.22,18.78,37.77,21,41.67Z"/></clipPath><clipPath id="clip-path-109"><path class="cls-1" d="M40.5,34.26A12.86,12.86,0,0,0,33.72,9.45c-4.35,1.18.55,1.16-2.65,14.06C40.37,33,36.14,35.43,40.5,34.26Z"/></clipPath><clipPath id="clip-path-132"><path class="cls-1" d="M43.27,19.29A12.87,12.87,0,0,0,21,6.44c-2.25,3.91,1.2,1.65,8,13.07C42.29,19.74,41.09,23.19,43.27,19.29Z"/></clipPath><clipPath id="clip-path-258"><path class="cls-1" d="M12.92,37c4.51,0,.83-.68,7.29-12.32-6.46-11.57-2.85-13.45-7.36-13.45A12.88,12.88,0,1,0,12.92,37Z"/></clipPath><clipPath id="clip-path-367"><circle class="cls-1" cx="26.04" cy="24.57" r="2.03" transform="translate(-4.39 43.43) rotate(-75.13)"/></clipPath><clipPath id="clip-path-368"><circle class="cls-1" cx="26.06" cy="24.56" r="2.03" transform="translate(-4.98 6.71) rotate(-13.41)"/></clipPath></defs><title>Artboard 1</title><g class="cls-2"><rect class="cls-3" x="18.78" y="24.85" width="28.09" height="25.09"/></g><g class="cls-2"><path class="cls-3" d="M18,24.1h29.6v8h3.68a26.34,26.34,0,0,1-32.15,18.7,26,26,0,0,1-5-1.88H18Z"/></g><g class="cls-2"><path class="cls-4" d="M18,24.1h29.6V32h3.53A26.07,26.07,0,0,1,19.23,50.54a28.09,28.09,0,0,1-5-1.88H18Z"/></g><g class="cls-2"><path class="cls-5" d="M18,24.1h29.6V32h3.31a25.85,25.85,0,0,1-31.62,18.4,21.22,21.22,0,0,1-4.88-1.88H18.1V24.1Z"/></g><g class="cls-2"><path class="cls-6" d="M18,24.1h29.6v7.81h3.15a25.71,25.71,0,0,1-31.4,18.25,27.11,27.11,0,0,1-4.88-1.8H18.1V24.1Z"/></g><g class="cls-2"><path class="cls-7" d="M18,24.1h29.6v7.74h2.93a25.51,25.51,0,0,1-31.17,18.1,24.44,24.44,0,0,1-4.81-1.8H18Z"/></g><g class="cls-2"><path class="cls-7" d="M18,24.1h29.6v7.66h2.7a25.23,25.23,0,0,1-30.87,18,26.36,26.36,0,0,1-4.81-1.8H18Z"/></g><g class="cls-2"><path class="cls-8" d="M18,24.1H47.55v7.66H50.1a25,25,0,0,1-30.65,17.8,25.64,25.64,0,0,1-4.73-1.8H18V24.1Z"/></g><g class="cls-2"><path class="cls-9" d="M18,24.1h29.6v7.59H50A24.91,24.91,0,0,1,19.53,49.41a25.64,25.64,0,0,1-4.73-1.8H18Z"/></g><g class="cls-2"><path class="cls-10" d="M18,24.1h29.6v7.51h2.1a24.64,24.64,0,0,1-30.2,17.5,28.44,28.44,0,0,1-4.66-1.73H18Z"/></g><g class="cls-2"><path class="cls-11" d="M18,24.1H47.55v7.51h2A24.31,24.31,0,0,1,19.68,49,31.26,31.26,0,0,1,15,47.23h3Z"/></g><g class="cls-2"><path class="cls-11" d="M18,24.1h29.6v7.44h1.73A24.32,24.32,0,0,1,19.68,48.81a22.23,22.23,0,0,1-4.58-1.73H18Z"/></g><g class="cls-2"><path class="cls-12" d="M18,24.1h29.6v7.36H49.2a24.08,24.08,0,0,1-34,15.4H18Z"/></g><g class="cls-2"><path class="cls-13" d="M18,24.1H47.7v7.36h1.35a24,24,0,0,1-29.22,16.9,23.29,23.29,0,0,1-4.51-1.73H18.1V24.1Z"/></g><g class="cls-2"><path class="cls-14" d="M18,24.1h29.6v7.29h1.13A23.66,23.66,0,0,1,19.83,48.21a29.22,29.22,0,0,1-4.51-1.65H18Z"/></g><g class="cls-2"><path class="cls-15" d="M18,24.1h29.6v7.21h1A23.45,23.45,0,0,1,19.91,48a25.77,25.77,0,0,1-4.43-1.65H18Z"/></g><g class="cls-2"><path class="cls-15" d="M18,24.1h29.6v7.21h.75A23.28,23.28,0,0,1,19.91,47.83a22.39,22.39,0,0,1-4.43-1.65H18V24.1Z"/></g><g class="cls-2"><path class="cls-16" d="M18,24.1h29.6v7.14h.6A23,23,0,0,1,20.06,47.61,21.72,21.72,0,0,1,15.7,46h2.4V24.1Z"/></g><g class="cls-2"><path class="cls-17" d="M18,24.1h29.6v7.06H48A22.73,22.73,0,0,1,20.06,47.38a21.72,21.72,0,0,1-4.36-1.65H18Z"/></g><g class="cls-2"><path class="cls-18" d="M18,24.1h29.6v7.06h.15A22.65,22.65,0,0,1,20.06,47.23a21.06,21.06,0,0,1-4.28-1.65H18Z"/></g><g class="cls-2"><path class="cls-19" d="M18,24.1h29.6l.53-2a24.15,24.15,0,0,1-.53,8.94A22.34,22.34,0,0,1,20.21,47a20.85,20.85,0,0,1-4.28-1.58H18Z"/></g><g class="cls-2"><path class="cls-20" d="M18,24.1h29.6l.3-1.88A23.27,23.27,0,0,1,47.4,31,22.33,22.33,0,0,1,20.21,46.86,18.73,18.73,0,0,1,16,45.28h2Z"/></g><g class="cls-2"><path class="cls-21" d="M18,24.1h29.6l.15-1.88a22.88,22.88,0,0,1-.53,8.71,22,22,0,0,1-27,15.7,20.2,20.2,0,0,1-4.21-1.58h2Z"/></g><g class="cls-2"><path class="cls-22" d="M18,24.1H47.47V22.22a22.5,22.5,0,0,1-.53,8.64A21.89,21.89,0,0,1,20.21,46.41a19.56,19.56,0,0,1-4.13-1.58H18V24.1Z"/></g><g class="cls-2"><path class="cls-22" d="M18,24.1h29.3v-1.8a22.11,22.11,0,0,1-.53,8.56,21.61,21.61,0,0,1-26.44,15.4,21.26,21.26,0,0,1-4.13-1.58H18Z"/></g><g class="cls-2"><path class="cls-23" d="M18,24.1H47.1v-1.8a21.73,21.73,0,0,1-.53,8.49A21.5,21.5,0,0,1,12.69,42.27H18V24.1Z"/></g><g class="cls-2"><path class="cls-24" d="M18,24.1H46.87V22.37A21.31,21.31,0,0,1,20.36,45.88a20.54,20.54,0,0,1-7.59-3.76h5.11v-18Z"/></g><g class="cls-2"><path class="cls-25" d="M18,24.1H46.8V22.37A21.1,21.1,0,0,1,20.58,45.66,21.92,21.92,0,0,1,13.07,42h5V24.1Z"/></g><g class="cls-2"><path class="cls-25" d="M18,24.1H46.57V22.37A20.61,20.61,0,0,1,46,30.63a20.83,20.83,0,0,1-25.46,14.8,21.56,21.56,0,0,1-7.44-3.68H18Z"/></g><g class="cls-2"><path class="cls-26" d="M18,24.1H46.35V22.44a20.33,20.33,0,0,1-.53,8.19,20.7,20.7,0,0,1-32.6,11H18V24.1Z"/></g><g class="cls-2"><path class="cls-27" d="M18,24.1H46.2V22.44a21.23,21.23,0,0,1-.45,8.11,20.35,20.35,0,0,1-24.94,14.5,20.7,20.7,0,0,1-7.29-3.61h4.66V24.1Z"/></g><g class="cls-2"><path class="cls-27" d="M18,24.1H46V22.44a20.85,20.85,0,0,1-.45,8A20.33,20.33,0,0,1,20.73,44.9a21.54,21.54,0,0,1-7.21-3.53H18Z"/></g><g class="cls-2"><path class="cls-28" d="M18,24.1H45.75V22.52a20.54,20.54,0,0,1-.45,8,20,20,0,0,1-24.49,14.2,19.28,19.28,0,0,1-7.14-3.53H18Z"/></g><g class="cls-2"><path class="cls-29" d="M18,24.1H45.6V22.52a20.17,20.17,0,0,1-.45,7.89A19.87,19.87,0,0,1,20.88,44.53a19.38,19.38,0,0,1-7.06-3.46H18.1v-17Z"/></g><g class="cls-2"><path class="cls-30" d="M18,24.1H45.37v-1.5A19.63,19.63,0,0,1,21,44.38a19,19,0,0,1-7-3.46H18.1V24.1Z"/></g><g class="cls-2"><path class="cls-30" d="M18,24.1H45.15v-1.5A19.44,19.44,0,0,1,21,44.15,20.45,20.45,0,0,1,14,40.77h4Z"/></g><g class="cls-2"><path class="cls-31" d="M18,24.1H44.92v-1.5a18.61,18.61,0,0,1-.45,7.59A19.21,19.21,0,0,1,21,43.85a19.43,19.43,0,0,1-6.84-3.38H18V24.1Z"/></g><g class="cls-2"><path class="cls-32" d="M18,24.1H44.77V22.67a18.18,18.18,0,0,1-.45,7.51A19,19,0,0,1,21.11,43.7a17.91,17.91,0,0,1-6.76-3.38H18.1V24.1Z"/></g><g class="cls-2"><path class="cls-32" d="M18,24.1H44.54V22.67a17.9,17.9,0,0,1-.45,7.44,18.81,18.81,0,0,1-23,13.37,19.22,19.22,0,0,1-6.69-3.31H18Z"/></g><g class="cls-2"><path class="cls-33" d="M18,24.1H44.32V22.67A17.54,17.54,0,0,1,43.87,30,18.64,18.64,0,0,1,21.11,43.25a18.25,18.25,0,0,1-6.61-3.31H18V24.1Z"/></g><g class="cls-2"><path class="cls-34" d="M18,24.1H44.17V22.74a18.44,18.44,0,0,1-23,20.36,19,19,0,0,1-6.54-3.23H18Z"/></g><g class="cls-2"><path class="cls-35" d="M18,24.1H43.94V22.74A18.15,18.15,0,0,1,14.8,39.65H18Z"/></g><g class="cls-2"><path class="cls-36" d="M18,24.1H43.79V22.82A17.75,17.75,0,0,1,43.34,30a18,18,0,0,1-22,12.77,17,17,0,0,1-6.38-3.15H18.1V24.1Z"/></g><g class="cls-2"><path class="cls-37" d="M18,24.1H43.57V22.82a17.47,17.47,0,0,1-.45,7.06A17.75,17.75,0,0,1,21.33,42.5,16.64,16.64,0,0,1,15,39.35h3Z"/></g><g class="cls-2"><path class="cls-38" d="M18,24.1H43.34V22.82a17,17,0,0,1-.45,7A17.49,17.49,0,0,1,21.41,42.27a18,18,0,0,1-6.23-3.08H18Z"/></g><g class="cls-2"><path class="cls-38" d="M18,24.1H43.12v-1.2a16.67,16.67,0,0,1-.45,6.91A17.46,17.46,0,0,1,21.41,42.2a15.87,15.87,0,0,1-6.16-3.08H18Z"/></g><g class="cls-2"><path class="cls-39" d="M18,24.1H43v-1.2a17.68,17.68,0,0,1-.38,6.84A17.28,17.28,0,0,1,21.56,42a16.5,16.5,0,0,1-6.08-3H18.1V24.1Z"/></g><g class="cls-2"><path class="cls-40" d="M18,24.1H42.74v-1.2a17.22,17.22,0,0,1-.38,6.76A17,17,0,0,1,21.56,41.75a17.74,17.74,0,0,1-6.08-3H18Z"/></g><g class="cls-2"><path class="cls-40" d="M18,24.1H42.59V23A16.77,16.77,0,0,1,21.71,41.6a17.93,17.93,0,0,1-6-2.93h2.4V24.1Z"/></g><g class="cls-2"><path class="cls-41" d="M18,24.1H42.37V23a16.58,16.58,0,0,1-20.66,18.4,16.88,16.88,0,0,1-5.93-2.93H18Z"/></g><g class="cls-2"><path class="cls-42" d="M18,24.1H42.14V23a16.18,16.18,0,0,1-.38,6.54A16.35,16.35,0,0,1,21.71,41.22a17.73,17.73,0,0,1-5.86-2.85H18Z"/></g><g class="cls-2"><path class="cls-43" d="M18,24.1H41.92V23a16.69,16.69,0,0,1-.38,6.38A16.1,16.1,0,0,1,21.78,40.92,16.68,16.68,0,0,1,16,38.07h2Z"/></g><g class="cls-2"><path class="cls-43" d="M18,24.1H41.69V23a16.39,16.39,0,0,1-.38,6.31A16,16,0,0,1,21.78,40.7a16.84,16.84,0,0,1-5.71-2.78H18V24.1Z"/></g><g class="cls-2"><path class="cls-44" d="M18,24.1H41.54v-1a16,16,0,0,1-.38,6.23A15.79,15.79,0,0,1,21.86,40.55a15.23,15.23,0,0,1-5.63-2.78H18Z"/></g><g class="cls-2"><path class="cls-45" d="M18,24.1H41.31v-1A15.62,15.62,0,0,1,21.93,40.4a15.35,15.35,0,0,1-5.56-2.7H18Z"/></g><g class="cls-2"><path class="cls-45" d="M18,24.1H41.09v-1a15.37,15.37,0,0,1-19.15,17,15.61,15.61,0,0,1-5.48-2.7H18V24.1Z"/></g><g class="cls-2"><path class="cls-46" d="M18,24.1H40.94v-.9a14.89,14.89,0,0,1-.38,6A15.23,15.23,0,0,1,22,40,15,15,0,0,1,12.77,33H18Z"/></g><g class="cls-2"><path class="cls-47" d="M18,24.1H40.71v-.9a14.52,14.52,0,0,1-.38,5.93A15,15,0,0,1,22,39.8a14.59,14.59,0,0,1-9.09-7h5V24.1Z"/></g><g class="cls-2"><path class="cls-47" d="M18,24.1H40.49v-.83a14.17,14.17,0,0,1-.38,5.86,14.74,14.74,0,0,1-18,10.52,15.17,15.17,0,0,1-9-6.84H18V24.1Z"/></g><g class="cls-2"><path class="cls-48" d="M18,24.1H40.34v-.83A13.81,13.81,0,0,1,40,29.05,14.56,14.56,0,0,1,13.3,32.66H18Z"/></g><g class="cls-2"><path class="cls-49" d="M18,24.1H40.11v-.83A14.79,14.79,0,0,1,39.74,29a14.28,14.28,0,0,1-17.5,10.22,14.12,14.12,0,0,1-8.71-6.69H18Z"/></g><g class="cls-2"><path class="cls-49" d="M18,24.1H39.89v-.75a15.93,15.93,0,0,1-.3,5.63A14.12,14.12,0,0,1,22.31,39a14.27,14.27,0,0,1-8.64-6.61H18Z"/></g><g class="cls-2"><path class="cls-50" d="M18,24.1H39.74v-.75a15.52,15.52,0,0,1-.3,5.56,14,14,0,0,1-17.05,9.92,13.81,13.81,0,0,1-8.49-6.46H18.1V24.1Z"/></g><g class="cls-2"><path class="cls-51" d="M18,24.1H39.59v-.75a15.11,15.11,0,0,1-.3,5.48,13.73,13.73,0,0,1-25.16,3.38h4V24.1Z"/></g><g class="cls-2"><path class="cls-52" d="M18,24.1H39.29v-.68a14.79,14.79,0,0,1-.3,5.41,13.58,13.58,0,0,1-24.86,3.31H18v-8Z"/></g><g class="cls-2"><path class="cls-53" d="M18,24.1h21v-.68a13.83,13.83,0,0,1-.3,5.26,13.18,13.18,0,0,1-16.23,9.54A13.4,13.4,0,0,1,14.42,32H18.1V24.1Z"/></g><g class="cls-2"><path class="cls-54" d="M18,24.1H38.91v-.6a13.44,13.44,0,0,1-.3,5.18A13.16,13.16,0,0,1,22.54,38a12.93,12.93,0,0,1-8-6.08H18Z"/></g><g class="cls-2"><path class="cls-55" d="M18,24.1H38.69v-.6a13.14,13.14,0,0,1-.3,5.11,12.91,12.91,0,0,1-23.66,3.23H18Z"/></g><g class="cls-2"><path class="cls-55" d="M18,24.1H36.88V18.91a12.74,12.74,0,1,1-22,12.85H18Z"/></g><g class="cls-2"><path class="cls-56" d="M18,24.1H36.81V19A12.56,12.56,0,1,1,15.1,31.61H18Z"/></g><g class="cls-2"><path class="cls-57" d="M18,24.1H36.58v-5a12.61,12.61,0,0,1,1.28,9.39,12.36,12.36,0,0,1-22.61,3.08H18Z"/></g><g class="cls-2"><path class="cls-58" d="M18,24.1h18.4V19.21a11.88,11.88,0,0,1,1.2,9.24,12.17,12.17,0,0,1-14.87,8.64,11.74,11.74,0,0,1-7.36-5.63H18Z"/></g><g class="cls-2"><path class="cls-58" d="M18,24.1H36.28V19.29a12.18,12.18,0,0,1,1.2,9.09,11.91,11.91,0,0,1-14.57,8.49,12.16,12.16,0,0,1-7.29-5.56H18Z"/></g><g class="cls-2"><path class="cls-59" d="M18,24.1h18V19.44a11.85,11.85,0,0,1,1.2,8.94,11.74,11.74,0,0,1-22.69-6.08Z"/></g><g class="cls-2"><path class="cls-60" d="M18,24.1h17.8V19.51A11.67,11.67,0,0,1,37,28.23a11.54,11.54,0,0,1-14.12,8.19,11.42,11.42,0,0,1-8.11-14Z"/></g><g class="cls-2"><path class="cls-60" d="M18,24.1H35.76V19.59A11.34,11.34,0,1,1,15,22.37Z"/></g><g class="cls-2"><path class="cls-61" d="M18,24.1h17.5V19.74a10.9,10.9,0,0,1,1.13,8.41,11.11,11.11,0,0,1-21.48-5.71Z"/></g><g class="cls-2"><path class="cls-62" d="M18,24.1H35.31V19.81a10.9,10.9,0,1,1-19.91,2.7Z"/></g><g class="cls-2"><path class="cls-63" d="M18,24.1h17.2V19.89A10.82,10.82,0,0,1,36.36,28,10.7,10.7,0,1,1,15.7,22.44Z"/></g><g class="cls-2"><path class="cls-63" d="M18,24.1H35V20a10.43,10.43,0,0,1,1.05,8,10.49,10.49,0,1,1-20.28-5.33Z"/></g><g class="cls-2"><path class="cls-64" d="M18,24.1H34.85v-4a10.06,10.06,0,0,1,1.05,7.81,10.33,10.33,0,1,1-20-5.26Z"/></g><g class="cls-2"><path class="cls-65" d="M18,24.1h16.6V20.19a10.36,10.36,0,0,1,1.05,7.66,10.14,10.14,0,1,1-19.61-5.18Z"/></g><g class="cls-2"><path class="cls-65" d="M18,24.1H34.48V20.34a9.63,9.63,0,0,1,1,7.51,9.9,9.9,0,1,1-19.15-5Z"/></g><g class="cls-2"><path class="cls-66" d="M18,24.1h16.3V20.42a9.72,9.72,0,1,1-17.8,2.4Z"/></g><g class="cls-2"><path class="cls-67" d="M18,24.1H34.1V20.57a9.52,9.52,0,1,1-17.43,2.33Z"/></g><g class="cls-2"><path class="cls-68" d="M18,24.1H34V20.64a9.51,9.51,0,0,1,1,7.06,9.27,9.27,0,0,1-11.34,6.61A9.37,9.37,0,0,1,17,22.89Z"/></g><g class="cls-2"><path class="cls-69" d="M18,24.1H33.8V20.72a8.83,8.83,0,0,1,.9,6.91A9.09,9.09,0,0,1,17.13,23Z"/></g><g class="cls-2"><path class="cls-70" d="M18,24.1H33.58V20.87a9.08,9.08,0,0,1,.9,6.76A8.9,8.9,0,1,1,17.28,23Z"/></g><g class="cls-2"><path class="cls-71" d="M18,24.1h15.4V20.94a8.75,8.75,0,0,1,.9,6.61A8.71,8.71,0,0,1,17.5,23Z"/></g><g class="cls-2"><path class="cls-71" d="M18,24.1H33.28V21a8.37,8.37,0,0,1,.9,6.46A8.47,8.47,0,0,1,17.8,23.12Z"/></g><g class="cls-2"><path class="cls-72" d="M18,24.1h15V21.17a8.29,8.29,0,1,1-15.17,2Z"/></g><g class="cls-2"><path class="cls-73" d="M18.1,24.1H33V21.24a7.94,7.94,0,0,1,.83,6.16,8.08,8.08,0,1,1-15.62-4.13v.83Z"/></g><g class="cls-2"><path class="cls-74" d="M18.33,24.1H32.75V21.32a8.25,8.25,0,0,1,.83,6A7.88,7.88,0,0,1,24,33a8,8,0,0,1-5.63-9.69Z"/></g><g class="cls-2"><path class="cls-75" d="M18.48,24.1h14V21.47a7.51,7.51,0,0,1,.75,5.86A7.69,7.69,0,1,1,18.4,23.42v.68Z"/></g><g class="cls-2"><path class="cls-76" d="M18.7,24.1H32.45V21.54A7.51,7.51,0,1,1,18.7,23.42Z"/></g><g class="cls-2"><path class="cls-77" d="M18.93,24.1H32.3V21.62a7.43,7.43,0,0,1,.75,5.56,7.31,7.31,0,1,1-14.12-3.76Z"/></g><g class="cls-2"><path class="cls-78" d="M19.08,24.1h13V21.77a7.4,7.4,0,0,1,.75,5.41,7.07,7.07,0,0,1-13.67-3.61v.53Z"/></g><g class="cls-2"><path class="cls-79" d="M19.31,24.1H31.92V21.84A6.53,6.53,0,0,1,32.6,27a6.88,6.88,0,0,1-13.3-3.53Z"/></g><g class="cls-2"><path class="cls-80" d="M19.46,24.1h8.19V18.84a6.69,6.69,0,1,1-8.19,4.73Z"/></g><g class="cls-2"><path class="cls-81" d="M19.68,24.1h7.89v-5a6.45,6.45,0,1,1-7.89,4.58Z"/></g><g class="cls-2"><path class="cls-82" d="M19.91,24.1h7.66V19.21a6.26,6.26,0,1,1-7.66,4.43Z"/></g><g class="cls-2"><path class="cls-83" d="M20.06,24.1h7.44V19.44a6.07,6.07,0,1,1-7.44,4.28Z"/></g><g class="cls-2"><path class="cls-84" d="M20.28,24.1h7.14V19.66a5.86,5.86,0,0,1,4.13,7.21A5.75,5.75,0,0,1,24.41,31a5.86,5.86,0,0,1-4.13-7.21Z"/></g><g class="cls-2"><path class="cls-85" d="M20.43,24.1h6.91V19.81a5.67,5.67,0,1,1-6.91,4.06Z"/></g><g class="cls-2"><path class="cls-85" d="M20.66,24.1h6.69V20a5.48,5.48,0,1,1-6.69,3.91Z"/></g><g class="cls-2"><path class="cls-86" d="M20.88,24.1h6.46V20.19a5.28,5.28,0,0,1-2.7,10.22,5.24,5.24,0,0,1-3.76-6.46Z"/></g><g class="cls-2"><path class="cls-87" d="M21,24.1h6.16V20.42A5,5,0,1,1,21,24Z"/></g><g class="cls-2"><path class="cls-88" d="M21.26,24.1h5.93V20.64a4.91,4.91,0,0,1,3.46,5.93,4.86,4.86,0,0,1-9.39-2.48Z"/></g><g class="cls-89"><circle class="cls-90" cx="25.92" cy="25.34" r="4.66" transform="translate(-5.22 43.89) rotate(-75.13)"/></g><g class="cls-89"><circle class="cls-91" cx="25.92" cy="25.34" r="4.43" transform="translate(-5.22 43.89) rotate(-75.13)"/></g><g class="cls-89"><circle class="cls-92" cx="25.92" cy="25.34" r="4.28" transform="matrix(0.26, -0.97, 0.97, 0.26, -5.22, 43.89)"/></g><g class="cls-89"><circle class="cls-93" cx="25.92" cy="25.34" r="4.06" transform="translate(-5.22 43.89) rotate(-75.13)"/></g><g class="cls-89"><circle class="cls-93" cx="25.92" cy="25.34" r="3.83" transform="translate(-5.22 43.89) rotate(-75.13)"/></g><g class="cls-89"><circle class="cls-94" cx="25.92" cy="25.34" r="3.61" transform="translate(-5.22 43.89) rotate(-75.13)"/></g><g class="cls-89"><circle class="cls-95" cx="25.92" cy="25.34" r="3.46" transform="translate(-5.22 43.89) rotate(-75.13)"/></g><g class="cls-89"><circle class="cls-96" cx="25.92" cy="25.34" r="3.23" transform="translate(-5.22 43.89) rotate(-75.13)"/></g><g class="cls-89"><circle class="cls-96" cx="25.92" cy="25.34" r="3" transform="translate(-5.22 43.89) rotate(-75.13)"/></g><g class="cls-89"><circle class="cls-97" cx="25.92" cy="25.34" r="2.85" transform="translate(-5.22 43.89) rotate(-75.13)"/></g><g class="cls-89"><circle class="cls-98" cx="25.92" cy="25.34" r="2.63" transform="translate(-5.22 43.89) rotate(-75.13)"/></g><g class="cls-89"><circle class="cls-99" cx="25.92" cy="25.34" r="2.4" transform="translate(-5.22 43.89) rotate(-75.13)"/></g><g class="cls-89"><circle class="cls-100" cx="25.92" cy="25.34" r="2.25" transform="translate(-5.22 43.89) rotate(-75.13)"/></g><g class="cls-89"><circle class="cls-101" cx="25.92" cy="25.34" r="2.03" transform="translate(-5.22 43.89) rotate(-75.13)"/></g><g class="cls-89"><circle class="cls-102" cx="25.92" cy="25.34" r="1.8" transform="translate(-5.22 43.89) rotate(-75.13)"/></g><g class="cls-89"><circle class="cls-103" cx="25.92" cy="25.34" r="1.65" transform="translate(-5.22 43.89) rotate(-75.13)"/></g><g class="cls-89"><circle class="cls-104" cx="25.92" cy="25.34" r="1.43" transform="translate(-5.22 43.89) rotate(-75.13)"/></g><g class="cls-89"><circle class="cls-105" cx="25.92" cy="25.34" r="1.2" transform="translate(-5.22 43.89) rotate(-75.13)"/></g><g class="cls-89"><circle class="cls-106" cx="25.92" cy="25.34" r="0.98" transform="translate(-5.22 43.89) rotate(-75.13)"/></g><g class="cls-89"><circle class="cls-107" cx="25.92" cy="25.34" r="0.83" transform="translate(-5.22 43.89) rotate(-75.13)"/></g><g class="cls-89"><circle class="cls-108" cx="25.92" cy="25.34" r="0.6" transform="translate(-5.22 43.89) rotate(-75.13)"/></g><g class="cls-89"><circle class="cls-109" cx="25.92" cy="25.34" r="0.38" transform="translate(-5.22 43.89) rotate(-75.13)"/></g><g class="cls-89"><circle class="cls-110" cx="25.92" cy="25.34" r="0.23" transform="translate(-5.22 43.89) rotate(-75.13)"/></g><g class="cls-111"><rect class="cls-3" x="18.7" y="-1.82" width="28.09" height="25.01"/></g><g class="cls-111"><path class="cls-3" d="M18,18.54v-16H12.69A26.38,26.38,0,0,1,32.6-.17a26,26,0,0,1,16,12.24H47.55V23.95H18Z"/></g><g class="cls-111"><path class="cls-4" d="M18,18.61V2.76H12.77A25.7,25.7,0,0,1,32.53.13,26,26,0,0,1,48.38,12.23h-.9V24H18Z"/></g><g class="cls-111"><path class="cls-5" d="M18,18.69V2.91h-5A25.61,25.61,0,0,1,32.53.28a26.24,26.24,0,0,1,15.77,12h-.75V23.95H18Z"/></g><g class="cls-111"><path class="cls-6" d="M18,18.69V3.06H13a25.62,25.62,0,0,1,35.08,9.31h-.53V23.95H18Z"/></g><g class="cls-111"><path class="cls-7" d="M18,18.76V3.29H13.15a25.34,25.34,0,0,1,34.78,9.24h-.38V24H18Z"/></g><g class="cls-111"><path class="cls-7" d="M18,18.84V3.44H13.22A25.14,25.14,0,0,1,32.38.89,25.51,25.51,0,0,1,47.77,12.6h-.23V23.95H18Z"/></g><g class="cls-111"><path class="cls-8" d="M18,18.91V3.59H13.3A24.81,24.81,0,0,1,32.3,1,25.09,25.09,0,0,1,47.55,12.68h0V23.95H18Z"/></g><g class="cls-111"><path class="cls-9" d="M18,18.91V3.81H13.45a24.77,24.77,0,0,1,34,9,25.3,25.3,0,0,1,3.15,9h-3V24H18Z"/></g><g class="cls-111"><path class="cls-10" d="M18,19V4H13.52a24.7,24.7,0,0,1,33.73,9,24.81,24.81,0,0,1,3.08,8.94H47.55V24H18Z"/></g><g class="cls-111"><path class="cls-11" d="M18,19.06V4.12H13.6A24.48,24.48,0,0,1,50.1,21.84H47.55v2.1H18Z"/></g><g class="cls-111"><path class="cls-11" d="M18,19.06V4.34H13.75a24,24,0,0,1,18.4-2.48A24.4,24.4,0,0,1,50,21.92h-2.4v2H18Z"/></g><g class="cls-111"><path class="cls-12" d="M18,19.14V4.49H13.82A24.26,24.26,0,0,1,32.08,2,24,24,0,0,1,49.73,21.92H47.55v2H18Z"/></g><g class="cls-111"><path class="cls-13" d="M18,19.21V4.64H13.9a23.84,23.84,0,0,1,32.6,8.71,24.64,24.64,0,0,1,3,8.64h-2v2H18Z"/></g><g class="cls-111"><path class="cls-14" d="M18,19.21V4.87H14a23.54,23.54,0,0,1,18-2.4,23.85,23.85,0,0,1,14.42,11,24.79,24.79,0,0,1,3,8.56h-1.8v2H18Z"/></g><g class="cls-111"><path class="cls-15" d="M18,19.29V5H14.12A23.45,23.45,0,0,1,46.2,13.5,22.85,22.85,0,0,1,49.13,22H47.55v2H18Z"/></g><g class="cls-111"><path class="cls-15" d="M18,19.36V5.17H14.2a23.47,23.47,0,0,1,17.65-2.4A22.81,22.81,0,0,1,46,13.58,23.39,23.39,0,0,1,48.9,22H47.55v2H18Z"/></g><g class="cls-111"><path class="cls-16" d="M18,19.36v-14H14.35A23.09,23.09,0,0,1,45.9,13.81a23.52,23.52,0,0,1,2.93,8.34h-1.2V24H18Z"/></g><g class="cls-111"><path class="cls-17" d="M18,19.44V5.54H14.42A22.7,22.7,0,0,1,31.77,3.21a23,23,0,0,1,13.9,10.59,21.67,21.67,0,0,1,2.85,8.26h-1v1.88H18Z"/></g><g class="cls-111"><path class="cls-18" d="M18,19.51V5.69H14.5A22.66,22.66,0,0,1,31.7,3.36,22.09,22.09,0,0,1,45.45,13.88a23.61,23.61,0,0,1,2.85,8.19h-.75v1.8H18Z"/></g><g class="cls-111"><path class="cls-19" d="M18,19.59V5.92H14.65A22.27,22.27,0,0,1,31.7,3.66,22.5,22.5,0,0,1,45.37,14.11a23.77,23.77,0,0,1,2.85,8.11h-.6V24H18Z"/></g><g class="cls-111"><path class="cls-20" d="M18,19.59V6.07H14.8a22.24,22.24,0,0,1,30.42,8.11,21.8,21.8,0,0,1,2.78,8h-.38V24H18Z"/></g><g class="cls-111"><path class="cls-21" d="M18,19.66V6.22H14.87A21.85,21.85,0,0,1,31.62,4,22.19,22.19,0,0,1,45.07,14.18a21.44,21.44,0,0,1,2.78,8H47.7v1.73H18Z"/></g><g class="cls-111"><path class="cls-22" d="M18,19.74V6.44h-3a22.15,22.15,0,0,1,16.6-2.25,21.57,21.57,0,0,1,13.3,10.14,22.49,22.49,0,0,1,2.78,7.89,20.43,20.43,0,0,1,.15,4.28l-.15-2.55H18Z"/></g><g class="cls-111"><path class="cls-22" d="M18,19.74V6.59H15A21.33,21.33,0,0,1,31.4,4.42,21.84,21.84,0,0,1,44.54,14.48a20.61,20.61,0,0,1,2.7,7.81,20.25,20.25,0,0,1,.15,4.28V24H18Z"/></g><g class="cls-111"><path class="cls-23" d="M18,19.81V6.74H15.17a21.42,21.42,0,0,1,29.3,7.81,22.12,22.12,0,0,1,2.7,7.74,19.55,19.55,0,0,1,.15,4.21V23.95H18Z"/></g><g class="cls-111"><path class="cls-24" d="M18,19.89V7h-2.7a21.2,21.2,0,0,1,29,7.66,22.75,22.75,0,0,1,2.7,7.66,19.55,19.55,0,0,1,.15,4.21V23.95H18Z"/></g><g class="cls-111"><path class="cls-25" d="M18,19.89V7.12H15.32A21.21,21.21,0,0,1,31.25,4.94a21,21,0,0,1,15.4,17.35,18.86,18.86,0,0,1,.15,4.13V23.87H18Z"/></g><g class="cls-111"><path class="cls-25" d="M18,20V7.27H15.47a20.44,20.44,0,0,1,15.77-2.1A20.9,20.9,0,0,1,46.57,22.44a18.35,18.35,0,0,1,.15,4.06V24H18Z"/></g><g class="cls-111"><path class="cls-26" d="M18,20V7.5h-2.4a20.78,20.78,0,0,1,15.62-2.1,20.47,20.47,0,0,1,12.62,9.54,21.3,21.3,0,0,1,2.63,7.51,18.35,18.35,0,0,1,.15,4.06V24H18V20Z"/></g><g class="cls-111"><path class="cls-27" d="M18,20V7.65H15.62A20.34,20.34,0,0,1,43.49,15,21.33,21.33,0,0,1,46,22.44a23.24,23.24,0,0,1,.15,4V23.95H18Z"/></g><g class="cls-111"><path class="cls-27" d="M18,20.12V7.8H15.77a19.69,19.69,0,0,1,15.32-2,20.12,20.12,0,0,1,12.32,9.39A21,21,0,0,1,46,22.52a23.24,23.24,0,0,1,.15,4V24H18Z"/></g><g class="cls-111"><path class="cls-28" d="M18,20.19V8h-2.1a20,20,0,0,1,27.34,7.29,19.08,19.08,0,0,1,2.48,7.29,22.66,22.66,0,0,1,.15,3.91V24H18Z"/></g><g class="cls-111"><path class="cls-29" d="M18,20.19v-12h-2a19.71,19.71,0,0,1,27,7.21,20.07,20.07,0,0,1,2.48,7.21,22.37,22.37,0,0,1,.15,3.91V24H18Z"/></g><g class="cls-111"><path class="cls-30" d="M18,20.27V8.32H16.08a19.56,19.56,0,0,1,14.87-2,19.93,19.93,0,0,1,11.94,9.09,19.7,19.7,0,0,1,2.48,7.14,21.8,21.8,0,0,1,.15,3.83V23.87H18Z"/></g><g class="cls-111"><path class="cls-30" d="M18,20.34V8.47h-1.8a19.42,19.42,0,0,1,26.52,7.06,17.93,17.93,0,0,1,2.4,7.06,21.8,21.8,0,0,1,.15,3.83V24H18Z"/></g><g class="cls-111"><path class="cls-31" d="M18,20.42V8.7H16.3a19.25,19.25,0,0,1,26.29,7,20.3,20.3,0,0,1,2.4,7,20.68,20.68,0,0,1,.15,3.76V24H18Z"/></g><g class="cls-111"><path class="cls-32" d="M18,20.42V8.85H16.38a18.75,18.75,0,0,1,14.42-2,19,19,0,0,1,11.57,8.86,19.91,19.91,0,0,1,2.4,6.91,20.68,20.68,0,0,1,.15,3.76V24H18Z"/></g><g class="cls-111"><path class="cls-32" d="M18,20.49V9h-1.5A19.05,19.05,0,0,1,30.72,7a18.78,18.78,0,0,1,11.42,8.71,18.47,18.47,0,0,1,2.33,6.84,20.13,20.13,0,0,1,.15,3.68v-2.4H18Z"/></g><g class="cls-111"><path class="cls-33" d="M18,20.57V9.22H16.53A18.37,18.37,0,0,1,30.65,7.35,18.73,18.73,0,0,1,42,16a17.67,17.67,0,0,1,2.33,6.76,19.86,19.86,0,0,1,.15,3.68V24H18Z"/></g><g class="cls-111"><path class="cls-34" d="M18,20.57V9.37H16.68a18.39,18.39,0,0,1,25.16,6.69,18.65,18.65,0,0,1,2.33,6.69,19.32,19.32,0,0,1,.15,3.61v-2.4H18V20.57Z"/></g><g class="cls-111"><path class="cls-35" d="M18,20.64V9.52h-1.2A18.29,18.29,0,0,1,30.57,7.65a17.9,17.9,0,0,1,11,8.49,17.29,17.29,0,0,1,2.25,6.61A19.32,19.32,0,0,1,44,26.35v-2.4H18Z"/></g><g class="cls-111"><path class="cls-36" d="M18,20.72v-11H16.9a18.1,18.1,0,0,1,24.64,6.54,18.12,18.12,0,0,1,2.4,10.07V24H18Z"/></g><g class="cls-111"><path class="cls-37" d="M18,20.72V9.9H17a17.81,17.81,0,0,1,24.34,6.46,18.89,18.89,0,0,1,2.25,6.46,18.27,18.27,0,0,1,.15,3.53V24H18Z"/></g><g class="cls-111"><path class="cls-38" d="M18,20.79V10h-.9a17.82,17.82,0,0,1,13.37-1.8,17.69,17.69,0,0,1,13,18V23.95H17.88V20.79Z"/></g><g class="cls-111"><path class="cls-38" d="M18,20.87V10.27H17.2a17.44,17.44,0,0,1,13.22-1.8A17.45,17.45,0,0,1,43.19,22.89a17.5,17.5,0,0,1,.15,3.46V24H18Z"/></g><g class="cls-111"><path class="cls-39" d="M18,20.87V10.42h-.68a17.24,17.24,0,0,1,23.51,6.23A16.25,16.25,0,0,1,43,22.89a17,17,0,0,1,.15,3.38V23.95H18Z"/></g><g class="cls-111"><path class="cls-40" d="M18,20.94V10.58h-.6a17.07,17.07,0,0,1,23.29,6.16,16.23,16.23,0,0,1,2.1,6.16,16.25,16.25,0,0,1,.15,3.31V23.87H18Z"/></g><g class="cls-111"><path class="cls-40" d="M18,21V10.8H17.5a16.72,16.72,0,0,1,22.91,6.08A17.25,17.25,0,0,1,42.52,23a16,16,0,0,1,.15,3.31V24H18Z"/></g><g class="cls-111"><path class="cls-41" d="M18,21.09V11h-.38A16.85,16.85,0,0,1,30.12,9.22,16.44,16.44,0,0,1,40.19,17a16.87,16.87,0,0,1,2.1,6,15.52,15.52,0,0,1,.15,3.23V23.95H18Z"/></g><g class="cls-111"><path class="cls-42" d="M18,21.09v-10h-.3A16.07,16.07,0,0,1,30,9.45,16.21,16.21,0,0,1,42.07,23a15.29,15.29,0,0,1,.15,3.23V23.95H18Z"/></g><g class="cls-111"><path class="cls-43" d="M18,21.17V11.33H17.8A16.16,16.16,0,0,1,41.92,23a14.82,14.82,0,0,1,.15,3.15V23.95H18Z"/></g><g class="cls-111"><path class="cls-43" d="M18,21.24V11.48h-.08A16,16,0,0,1,30,9.82a15.78,15.78,0,0,1,9.69,7.44,16.13,16.13,0,0,1,2,5.78,14.82,14.82,0,0,1,.15,3.15V23.95H18Z"/></g><g class="cls-111"><path class="cls-44" d="M18,21.24V15.61H13.45a14.52,14.52,0,0,1,4.58-4,15.79,15.79,0,0,1,21.56,5.78,15.17,15.17,0,0,1,2,5.71,14.12,14.12,0,0,1,.15,3.08V23.95H18Z"/></g><g class="cls-111"><path class="cls-45" d="M18,21.32V15.76H13.6a15,15,0,0,1,4.51-3.91A15.27,15.27,0,0,1,29.9,10.27a15.68,15.68,0,0,1,9.46,7.21,16.21,16.21,0,0,1,2,5.63,20.64,20.64,0,0,1,.15,3.08V23.95H18Z"/></g><g class="cls-111"><path class="cls-45" d="M18,21.39V15.91H13.75A14.72,14.72,0,0,1,18.18,12a15.57,15.57,0,0,1,11.64-1.58,15.26,15.26,0,0,1,9.31,7.14,16.37,16.37,0,0,1,2,5.56,20.13,20.13,0,0,1,.15,3V23.95H18Z"/></g><g class="cls-111"><path class="cls-46" d="M18,21.39V16H13.9A15.12,15.12,0,0,1,40.49,29.13V23.87H18Z"/></g><g class="cls-111"><path class="cls-47" d="M18,21.47V16.13H14a15.74,15.74,0,0,1,4.28-3.76A15,15,0,0,1,40.26,29.2V24H18Z"/></g><g class="cls-111"><path class="cls-47" d="M18,21.54V16.28H14.2a15.74,15.74,0,0,1,4.28-3.76,14.79,14.79,0,0,1,21.71,16.6V24H18Z"/></g><g class="cls-111"><path class="cls-48" d="M18,21.54V16.36H14.42a14.17,14.17,0,0,1,4.21-3.68A14.56,14.56,0,0,1,40,29V23.87H18Z"/></g><g class="cls-111"><path class="cls-49" d="M18,21.62V16.51H14.57A13.52,13.52,0,0,1,18.7,12.9,14,14,0,0,1,29.6,11.48,14.28,14.28,0,0,1,39.81,29v-5H18Z"/></g><g class="cls-111"><path class="cls-49" d="M18,21.69v-5H14.72a16.85,16.85,0,0,1,4.06-3.61,14,14,0,0,1,10.74-1.43A14.16,14.16,0,0,1,39.59,29V24H18Z"/></g><g class="cls-111"><path class="cls-50" d="M18,21.77v-5H14.87A14,14,0,0,1,39.44,28.9v-5H18Z"/></g><g class="cls-111"><path class="cls-51" d="M18,21.77V16.89H15a14.52,14.52,0,0,1,4-3.46A13.59,13.59,0,0,1,29.45,12a13.73,13.73,0,0,1,9.77,16.83V23.95H18Z"/></g><g class="cls-111"><path class="cls-52" d="M12.85,21.84a13.57,13.57,0,0,1,26.22,7V24H18v-2.1H12.85Z"/></g><g class="cls-111"><path class="cls-53" d="M13.07,21.92a13.33,13.33,0,0,1,25.77,6.84V24H18v-2.1Z"/></g><g class="cls-111"><path class="cls-54" d="M13.22,21.92a13.14,13.14,0,1,1,25.39,6.76V23.95H18v-2Z"/></g><g class="cls-111"><path class="cls-55" d="M13.45,22a12.95,12.95,0,1,1,25,6.69V24H18v-2H13.45Z"/></g><g class="cls-111"><path class="cls-55" d="M13.6,22.07A12.71,12.71,0,1,1,38.16,28.6V24H17.88v-2Z"/></g><g class="cls-111"><path class="cls-56" d="M13.82,22.07a12.55,12.55,0,1,1,24.26,6.46V23.95H18V22.07Z"/></g><g class="cls-111"><path class="cls-57" d="M14,22.14a12.35,12.35,0,1,1,23.89,6.31V23.95H18v-1.8Z"/></g><g class="cls-111"><path class="cls-58" d="M14.2,22.22a12.16,12.16,0,0,1,23.51,6.23V24H18v-1.8Z"/></g><g class="cls-111"><path class="cls-58" d="M14.42,22.22A11.93,11.93,0,0,1,37.48,28.3V23.87H18V22.14H14.42Z"/></g><g class="cls-111"><path class="cls-59" d="M14.57,22.29a11.73,11.73,0,0,1,22.69,6V23.95H18V22.29Z"/></g><g class="cls-111"><path class="cls-60" d="M14.8,22.37A11.54,11.54,0,0,1,37.11,28.3V24H18V22.37Z"/></g><g class="cls-111"><path class="cls-60" d="M15,22.37a11.23,11.23,0,0,1,13.82-8,11.42,11.42,0,0,1,8,13.9V23.95H18V22.37Z"/></g><g class="cls-111"><path class="cls-61" d="M15.17,22.44a11.11,11.11,0,1,1,21.48,5.71V23.95H18v-1.5Z"/></g><g class="cls-111"><path class="cls-62" d="M15.4,22.52a10.92,10.92,0,0,1,21.11,5.63V24H18V22.59H15.4Z"/></g><g class="cls-111"><path class="cls-63" d="M15.55,22.59a10.7,10.7,0,1,1,20.66,5.56V24.1H18V22.67h-2.4Z"/></g><g class="cls-111"><path class="cls-63" d="M15.77,22.59a10.49,10.49,0,1,1,20.28,5.33V23.87H18V22.52H15.77Z"/></g><g class="cls-111"><path class="cls-64" d="M16,22.67a10.33,10.33,0,0,1,20,5.26v-4H18V22.67Z"/></g><g class="cls-111"><path class="cls-65" d="M16.15,22.74a10.14,10.14,0,0,1,19.61,5.18V24H18V22.74Z"/></g><g class="cls-111"><path class="cls-65" d="M16.38,22.74a9.9,9.9,0,0,1,19.15,5V23.87H18v-1.2H16.38Z"/></g><g class="cls-111"><path class="cls-66" d="M16.53,22.82a9.71,9.71,0,1,1,18.78,5V23.95H18V22.82Z"/></g><g class="cls-111"><path class="cls-67" d="M16.75,22.89a9.52,9.52,0,0,1,18.4,4.88V24H18V22.89Z"/></g><g class="cls-111"><path class="cls-68" d="M17,22.89a9.27,9.27,0,0,1,11.34-6.61A9.37,9.37,0,0,1,34.93,27.7V23.95H18V22.89Z"/></g><g class="cls-111"><path class="cls-69" d="M17.13,23A9.09,9.09,0,1,1,34.7,27.63V23.95H18V23Z"/></g><g class="cls-111"><path class="cls-70" d="M17.35,23a8.9,8.9,0,1,1,17.2,4.58V24H18V23Z"/></g><g class="cls-111"><path class="cls-71" d="M17.5,23a8.71,8.71,0,1,1,16.83,4.51V23.95H18V23Z"/></g><g class="cls-111"><path class="cls-71" d="M17.73,23.12A8.47,8.47,0,1,1,34.1,27.48V23.95H18v-.83Z"/></g><g class="cls-111"><path class="cls-72" d="M18,23.19a8.28,8.28,0,1,1,16,4.28V24H18v-.83Z"/></g><g class="cls-111"><path class="cls-73" d="M18.1,23.27A8.08,8.08,0,1,1,33.73,27.4V24H18l-.08,2.48A9.27,9.27,0,0,1,18.1,23.27Z"/></g><g class="cls-111"><path class="cls-74" d="M18.33,23.27a7.88,7.88,0,0,1,9.62-5.63,8,8,0,0,1,5.63,9.69V23.95H18.1v2.48A7.5,7.5,0,0,1,18.33,23.27Z"/></g><g class="cls-111"><path class="cls-75" d="M18.48,23.35a7.69,7.69,0,0,1,14.87,3.91V23.95h-14v5.18A7.67,7.67,0,0,1,18.48,23.35Z"/></g><g class="cls-111"><path class="cls-76" d="M18.7,23.42a7.5,7.5,0,0,1,14.5,3.83V24H19.46v5.11A7.56,7.56,0,0,1,18.7,23.42Z"/></g><g class="cls-111"><path class="cls-77" d="M18.93,23.42a7.31,7.31,0,0,1,14.12,3.76V23.95H19.68v5A7.14,7.14,0,0,1,18.93,23.42Z"/></g><g class="cls-111"><path class="cls-78" d="M19.08,23.5A7.07,7.07,0,1,1,32.75,27.1V23.95H19.83v4.88A7.21,7.21,0,0,1,19.08,23.5Z"/></g><g class="cls-111"><path class="cls-79" d="M19.31,23.57A6.88,6.88,0,1,1,32.6,27.1V24H20v4.81A6.76,6.76,0,0,1,19.31,23.57Z"/></g><g class="cls-111"><path class="cls-80" d="M19.46,23.57A6.69,6.69,0,0,1,32.38,27V23.95H20.21V28.6A6.45,6.45,0,0,1,19.46,23.57Z"/></g><g class="cls-111"><path class="cls-81" d="M19.68,23.65A6.45,6.45,0,1,1,32.15,27v-3H20.36v4.58A6.44,6.44,0,0,1,19.68,23.65Z"/></g><g class="cls-111"><path class="cls-82" d="M19.91,23.72A6.26,6.26,0,0,1,32,27V24H20.51v4.51A6.28,6.28,0,0,1,19.91,23.72Z"/></g><g class="cls-111"><path class="cls-83" d="M20.06,23.72a6.07,6.07,0,1,1,11.72,3.15V23.95h-11v4.43A6.22,6.22,0,0,1,20.06,23.72Z"/></g><g class="cls-111"><path class="cls-84" d="M20.28,23.8a5.75,5.75,0,0,1,7.14-4.13,5.86,5.86,0,0,1,4.13,7.21V24H20.88V28.3A5.87,5.87,0,0,1,20.28,23.8Z"/></g><g class="cls-111"><path class="cls-85" d="M20.43,23.87a5.67,5.67,0,0,1,11,2.85V23.95H21v4.21A5.65,5.65,0,0,1,20.43,23.87Z"/></g><g class="cls-111"><path class="cls-85" d="M20.66,23.95a5.48,5.48,0,1,1,10.59,2.78V24h-10v4.06A5.28,5.28,0,0,1,20.66,23.95Z"/></g><g class="cls-111"><path class="cls-86" d="M20.88,23.95a5.28,5.28,0,0,1,10.22,2.7v-2.7H21.41v4A5.17,5.17,0,0,1,20.88,23.95Z"/></g><g class="cls-111"><path class="cls-87" d="M21,24a5,5,0,0,1,9.77,2.55V23.95L21,24Z"/></g><g class="cls-111"><path class="cls-88" d="M21.26,24.1a4.85,4.85,0,0,1,5.93-3.46,4.91,4.91,0,0,1,3.46,5.93V24H21.26Z"/></g><g class="cls-111"><path class="cls-90" d="M21.48,24.1a4.66,4.66,0,0,1,9,2.4V23.95h-9Z"/></g><g class="cls-111"><path class="cls-91" d="M21.63,24.17A4.42,4.42,0,0,1,27,21a4.48,4.48,0,0,1,3.15,5.41V23.95H21.63Z"/></g><g class="cls-111"><path class="cls-92" d="M21.86,24.25A4.24,4.24,0,0,1,30,26.42V24H21.86Z"/></g><g class="cls-111"><path class="cls-93" d="M22,24.25a4,4,0,0,1,7.81,2.1v-2.4H22Z"/></g><g class="cls-111"><path class="cls-93" d="M22.23,24.32a3.85,3.85,0,0,1,7.44,2V24H22.23Z"/></g><g class="cls-111"><path class="cls-94" d="M22.46,24.4a3.62,3.62,0,1,1,7,1.88V24H22.38v.38Z"/></g><g class="cls-111"><path class="cls-95" d="M22.61,24.4a3.45,3.45,0,0,1,6.69,1.73V23.87H22.69v.53Z"/></g><g class="cls-111"><path class="cls-96" d="M22.84,24.47a3.26,3.26,0,0,1,6.31,1.65V23.95H22.91v.53Z"/></g><g class="cls-111"><path class="cls-96" d="M23,24.55A3,3,0,0,1,28.85,26v-2.1H23Z"/></g><g class="cls-111"><path class="cls-97" d="M23.21,24.62A2.83,2.83,0,1,1,28.69,26v-2.1H23.21Z"/></g><g class="cls-111"><path class="cls-98" d="M23.44,24.62A2.64,2.64,0,0,1,28.54,26v-2H23.44Z"/></g><g class="cls-111"><path class="cls-99" d="M23.59,24.7A2.45,2.45,0,0,1,28.32,26V24H23.66v.68Z"/></g><g class="cls-111"><path class="cls-100" d="M23.81,24.77a2.21,2.21,0,1,1,4.28,1.13V24H23.81Z"/></g><g class="cls-111"><path class="cls-101" d="M24,24.77a2,2,0,0,1,3.91,1.05V23.95H24Z"/></g><g class="cls-111"><path class="cls-102" d="M24.19,24.85a1.83,1.83,0,1,1,3.53,1V24H24.19Z"/></g><g class="cls-111"><path class="cls-103" d="M24.41,24.92a1.57,1.57,0,0,1,2-1.13,1.63,1.63,0,0,1,1.13,2V24H24.34v.9Z"/></g><g class="cls-111"><path class="cls-104" d="M24.56,24.92a1.4,1.4,0,0,1,2.7.75V23.95h-2.7Z"/></g><g class="cls-111"><path class="cls-105" d="M24.79,25a1.13,1.13,0,0,1,1.5-.83V24h-1.5Z"/></g><g class="cls-112"><rect class="cls-3" y="11.25" width="20.21" height="25.77"/></g><g class="cls-112"><path class="cls-3" d="M.53,18.54A26.71,26.71,0,0,1,5.11,9.15v1.28H20.88V37.69H3.23v.75A25.94,25.94,0,0,1,.53,18.54Z"/></g><g class="cls-112"><path class="cls-4" d="M.75,18.61A25.74,25.74,0,0,1,5.33,9.3v1.13H21V37.69H3.38v.68A25.61,25.61,0,0,1,.75,18.61Z"/></g><g class="cls-112"><path class="cls-5" d="M.9,18.69A25.4,25.4,0,0,1,5.48,9.45V10.5H21V37.77H3.53v.6A26.18,26.18,0,0,1,.9,18.69Z"/></g><g class="cls-112"><path class="cls-6" d="M1.13,18.69A25.52,25.52,0,0,1,5.63,9.52v.9H20.88V37.69H3.76v.45A25.52,25.52,0,0,1,1.13,18.69Z"/></g><g class="cls-112"><path class="cls-7" d="M1.35,18.76A25.79,25.79,0,0,1,5.86,9.67v.75H21V37.69H3.91v.45A25.37,25.37,0,0,1,1.35,18.76Z"/></g><g class="cls-112"><path class="cls-7" d="M1.5,18.84a25.3,25.3,0,0,1,4.43-9v.68H20.88V37.77H4.06V38A25.14,25.14,0,0,1,1.5,18.84Z"/></g><g class="cls-112"><path class="cls-8" d="M1.73,18.91A24.36,24.36,0,0,1,6.16,10v.53H21V37.77H4.28v.15A24.81,24.81,0,0,1,1.73,18.91Z"/></g><g class="cls-112"><path class="cls-9" d="M1.88,18.91A24.61,24.61,0,0,1,6.31,10v.38H21V37.69H4.43v.08A24.72,24.72,0,0,1,1.88,18.91Z"/></g><g class="cls-112"><path class="cls-10" d="M2.1,19A25.37,25.37,0,0,1,6.46,10.2v.3H21V37.77H7.44V41.6a27.64,27.64,0,0,1-2.78-3.83A24.58,24.58,0,0,1,2.1,19Z"/></g><g class="cls-112"><path class="cls-11" d="M2.33,19.06a24.25,24.25,0,0,1,4.28-8.71v.15H21V37.77H7.51v3.68a22.13,22.13,0,0,1-2.7-3.83A24,24,0,0,1,2.33,19.06Z"/></g><g class="cls-112"><path class="cls-11" d="M2.48,19.06a23.32,23.32,0,0,1,4.28-8.64H21V37.69H7.66v3.53A24.86,24.86,0,0,1,5,37.47,24.25,24.25,0,0,1,2.48,19.06Z"/></g><g class="cls-112"><path class="cls-12" d="M2.7,19.14a24,24,0,0,1,4.21-8.56,27.08,27.08,0,0,1,3.15-3.38V10.5H20.88V37.77H7.81v3.38a21.59,21.59,0,0,1-2.7-3.76A23.91,23.91,0,0,1,2.7,19.14Z"/></g><g class="cls-112"><path class="cls-13" d="M2.85,19.21a23.68,23.68,0,0,1,4.21-8.49,33.6,33.6,0,0,1,3.15-3.38V10.5H20.88V37.77H8v3.31a22.38,22.38,0,0,1-2.63-3.76A23.94,23.94,0,0,1,2.85,19.21Z"/></g><g class="cls-112"><path class="cls-14" d="M3.08,19.21A23.2,23.2,0,0,1,7.21,10.8,26.38,26.38,0,0,1,10.37,7.5v3H20.88V37.77H8.11v3.15a25.24,25.24,0,0,1-2.63-3.68A24,24,0,0,1,3.08,19.21Z"/></g><g class="cls-112"><path class="cls-15" d="M3.31,19.29A22.86,22.86,0,0,1,7.44,11a21.42,21.42,0,0,1,3.08-3.31V10.5H21V37.77H8.26v3a21.75,21.75,0,0,1-2.63-3.68A23.15,23.15,0,0,1,3.31,19.29Z"/></g><g class="cls-112"><path class="cls-15" d="M3.46,19.36A23.6,23.6,0,0,1,7.51,11.1,25.5,25.5,0,0,1,10.59,7.8v2.7H20.88V37.77H8.41v2.85A24.58,24.58,0,0,1,5.78,37,23.5,23.5,0,0,1,3.46,19.36Z"/></g><g class="cls-112"><path class="cls-16" d="M3.68,19.36a23.23,23.23,0,0,1,10.74-14v5.11H21V37.69H8.56v2.78A24.09,24.09,0,0,1,6,36.87,23.07,23.07,0,0,1,3.68,19.36Z"/></g><g class="cls-112"><path class="cls-17" d="M3.83,19.44A23,23,0,0,1,14.42,5.54v5h6.46V37.77H8.71V40.4a28,28,0,0,1-2.55-3.53A23.27,23.27,0,0,1,3.83,19.44Z"/></g><g class="cls-112"><path class="cls-18" d="M4.06,19.51A22.44,22.44,0,0,1,14.57,5.69v4.73H21V37.69h-12v2.48a23.44,23.44,0,0,1-2.55-3.53A22.47,22.47,0,0,1,4.06,19.51Z"/></g><g class="cls-112"><path class="cls-19" d="M4.28,19.59A22.29,22.29,0,0,1,14.72,5.92V10.5H21V37.77H9V40.1a16.59,16.59,0,0,1-2.48-3.53A22.13,22.13,0,0,1,4.28,19.59Z"/></g><g class="cls-112"><path class="cls-20" d="M4.43,19.59A22.08,22.08,0,0,1,14.8,6.07V10.5H21V37.77H12.32V43a23.15,23.15,0,0,1-5.63-6.46A22.27,22.27,0,0,1,4.43,19.59Z"/></g><g class="cls-112"><path class="cls-21" d="M4.66,19.66A22.19,22.19,0,0,1,14.87,6.22v4.21h6V37.69H12.47v5a21.61,21.61,0,0,1-5.56-6.38A21.67,21.67,0,0,1,4.66,19.66Z"/></g><g class="cls-112"><path class="cls-22" d="M4.81,19.74A21.83,21.83,0,0,1,14.95,6.44V10.5h5.93V37.77H12.54v4.81a20.94,20.94,0,0,1-5.48-6.31A22,22,0,0,1,4.81,19.74Z"/></g><g class="cls-112"><path class="cls-22" d="M5,19.74A21.36,21.36,0,0,1,15.1,6.59V10.5H21V37.77H12.69v4.66A21.53,21.53,0,0,1,5,19.74Z"/></g><g class="cls-112"><path class="cls-23" d="M5.26,19.81a21.3,21.3,0,0,1,10-13.07v3.68H21V37.69H12.85V42.2A22.2,22.2,0,0,1,7.44,36,20.91,20.91,0,0,1,5.26,19.81Z"/></g><g class="cls-112"><path class="cls-24" d="M5.41,19.89A21.11,21.11,0,0,1,15.25,7V10.5h5.63V37.77h-8v4.36A20.93,20.93,0,0,1,7.59,36,21.2,21.2,0,0,1,5.41,19.89Z"/></g><g class="cls-112"><path class="cls-25" d="M5.63,19.89A20.9,20.9,0,0,1,15.4,7.12V10.5H21V37.77H13.07V42a20.65,20.65,0,0,1-5.33-6.08A21,21,0,0,1,5.63,19.89Z"/></g><g class="cls-112"><path class="cls-25" d="M5.78,20A20.84,20.84,0,0,1,15.47,7.27v3.15h5.41V37.69H13.22v4.06a21.22,21.22,0,0,1-5.26-6A20.79,20.79,0,0,1,5.78,20Z"/></g><g class="cls-112"><path class="cls-26" d="M6,20A20.38,20.38,0,0,1,15.55,7.5v3h5.33V37.77H13.3v3.91a20.52,20.52,0,0,1-5.18-5.93A21,21,0,0,1,6,20Z"/></g><g class="cls-112"><path class="cls-27" d="M6.23,20A20.32,20.32,0,0,1,15.7,7.57v2.85H21V37.69H13.45v3.76a20.67,20.67,0,0,1-5.18-5.93A20,20,0,0,1,6.23,20Z"/></g><g class="cls-112"><path class="cls-27" d="M6.38,20.12A20.12,20.12,0,0,1,15.77,7.8v2.63h5.11V37.69H13.52v3.53a19.07,19.07,0,0,1-5.11-5.86A20.06,20.06,0,0,1,6.38,20.12Z"/></g><g class="cls-112"><path class="cls-28" d="M6.61,20.19A20,20,0,0,1,15.92,8V10.5h5V37.77H13.75v3.38a19.58,19.58,0,0,1-5-5.78A19.66,19.66,0,0,1,6.61,20.19Z"/></g><g class="cls-112"><path class="cls-29" d="M6.76,20.19A19.91,19.91,0,0,1,16,8.1v2.33h5V37.69H13.82v3.23a20.27,20.27,0,0,1-5-5.71A19.89,19.89,0,0,1,6.76,20.19Z"/></g><g class="cls-112"><path class="cls-30" d="M7,20.27A19.39,19.39,0,0,1,16.08,8.32v2.1h4.81V37.69h-7v3.08a20.77,20.77,0,0,1-5-5.63A19.49,19.49,0,0,1,7,20.27Z"/></g><g class="cls-112"><path class="cls-30" d="M7.21,20.34a19.24,19.24,0,0,1,9-11.79v2H21V37.77H14V40.7a18.39,18.39,0,0,1-4.88-5.63A19.17,19.17,0,0,1,7.21,20.34Z"/></g><g class="cls-112"><path class="cls-31" d="M7.36,20.42A19.18,19.18,0,0,1,16.3,8.7v1.8H21V37.77H14.2v2.78A20.34,20.34,0,0,1,9.31,35,19.17,19.17,0,0,1,7.36,20.42Z"/></g><g class="cls-112"><path class="cls-32" d="M7.59,20.42A18.83,18.83,0,0,1,16.45,8.85v1.58H21V37.69H14.35v2.63A19,19,0,0,1,7.59,20.42Z"/></g><g class="cls-112"><path class="cls-32" d="M7.74,20.49A18.78,18.78,0,0,1,16.45,9.07V10.5h4.43V37.77H14.42v2.48a19.05,19.05,0,0,1-4.73-5.41A19.29,19.29,0,0,1,7.74,20.49Z"/></g><g class="cls-112"><path class="cls-33" d="M8,20.57A18.73,18.73,0,0,1,16.6,9.22V10.5h4.28V37.77H14.5V40a17.84,17.84,0,0,1-4.66-5.41A18.14,18.14,0,0,1,8,20.57Z"/></g><g class="cls-112"><path class="cls-34" d="M8.19,20.57A18.31,18.31,0,0,1,16.75,9.37v1.05H21V37.69H14.72v2.1a19.7,19.7,0,0,1-4.66-5.33A17.73,17.73,0,0,1,8.19,20.57Z"/></g><g class="cls-112"><path class="cls-35" d="M8.34,20.64A18.25,18.25,0,0,1,16.83,9.52v.9H21V37.69l.38,5.18A18.2,18.2,0,0,1,8.34,20.64Z"/></g><g class="cls-112"><path class="cls-36" d="M8.56,20.72a18,18,0,0,1,8.34-11v.75h4V37.77l.38,5A18,18,0,0,1,8.56,20.72Z"/></g><g class="cls-112"><path class="cls-37" d="M8.71,20.72A17.85,17.85,0,0,1,17,9.9v.53h3.91V37.69l.45,4.81A17.83,17.83,0,0,1,8.71,20.72Z"/></g><g class="cls-112"><path class="cls-38" d="M8.94,20.79A17.8,17.8,0,0,1,17.13,10v.38H21V37.69l.53,4.58A17.5,17.5,0,0,1,8.94,20.79Z"/></g><g class="cls-112"><path class="cls-38" d="M9.16,20.87a17.12,17.12,0,0,1,8.11-10.59v.23H21V37.77l.6,4.36A17.34,17.34,0,0,1,9.16,20.87Z"/></g><g class="cls-112"><path class="cls-39" d="M9.31,20.87a17.12,17.12,0,0,1,8-10.44h3.61V37.69l.6,4.21A17.23,17.23,0,0,1,9.31,20.87Z"/></g><g class="cls-112"><path class="cls-40" d="M9.54,20.94a17.07,17.07,0,0,1,7.89-10.37,16.23,16.23,0,0,1,6.16-2.1l-2.63,2V37.69l.68,4A16.9,16.9,0,0,1,9.54,20.94Z"/></g><g class="cls-112"><path class="cls-40" d="M9.69,21A16.65,16.65,0,0,1,17.5,10.8a17.25,17.25,0,0,1,6.08-2.1l-2.7,1.8V37.77l.75,3.83A16.93,16.93,0,0,1,9.69,21Z"/></g><g class="cls-112"><path class="cls-41" d="M9.92,21.09A16.5,16.5,0,0,1,17.65,11a16.87,16.87,0,0,1,6-2.1L21,10.5V37.77l.75,3.61A16.66,16.66,0,0,1,9.92,21.09Z"/></g><g class="cls-112"><path class="cls-42" d="M10.14,21.09a16.21,16.21,0,0,1,13.52-12L21,10.42V37.69l.83,3.38A16.24,16.24,0,0,1,10.14,21.09Z"/></g><g class="cls-112"><path class="cls-43" d="M10.29,21.17A16.17,16.17,0,0,1,23.66,9.3l-2.78,1.2V37.77l.9,3.23A16.27,16.27,0,0,1,10.29,21.17Z"/></g><g class="cls-112"><path class="cls-43" d="M10.52,21.24A16.1,16.1,0,0,1,23.74,9.45l-2.78,1V37.69l.9,3A15.85,15.85,0,0,1,10.52,21.24Z"/></g><g class="cls-112"><path class="cls-44" d="M10.67,21.24A15.72,15.72,0,0,1,18,11.63a14,14,0,0,1,5.71-2L21,10.42V37.69l1,2.78A15.68,15.68,0,0,1,10.67,21.24Z"/></g><g class="cls-112"><path class="cls-45" d="M10.89,21.32a15.47,15.47,0,0,1,7.21-9.46,16.21,16.21,0,0,1,5.63-2l-2.85.6V37.77l1.05,2.63A15.67,15.67,0,0,1,10.89,21.32Z"/></g><g class="cls-112"><path class="cls-45" d="M11.12,21.39A15.41,15.41,0,0,1,18.25,12a16.37,16.37,0,0,1,5.56-2L21,10.42V37.69L22,40.1A15.25,15.25,0,0,1,11.12,21.39Z"/></g><g class="cls-112"><path class="cls-46" d="M11.27,21.39a15,15,0,0,1,7.06-9.24,14,14,0,0,1,5.48-1.88l-2.93.15V37.69L22,39.95A15.21,15.21,0,0,1,11.27,21.39Z"/></g><g class="cls-112"><path class="cls-47" d="M11.49,21.47a14.59,14.59,0,0,1,7-9.09,15.47,15.47,0,0,1,5.41-1.88H21V37.77l1.2,2A15,15,0,0,1,11.49,21.47Z"/></g><g class="cls-112"><path class="cls-47" d="M11.64,21.54A14.82,14.82,0,0,1,23.81,10.65H20.88v27l1.28,1.8A14.69,14.69,0,0,1,11.64,21.54Z"/></g><g class="cls-112"><path class="cls-48" d="M11.87,21.54a14.54,14.54,0,0,1,6.76-8.86,14.11,14.11,0,0,1,5.26-1.8h-3V37.77l1.28,1.65A14.66,14.66,0,0,1,11.87,21.54Z"/></g><g class="cls-112"><path class="cls-49" d="M12.09,21.62A14.43,14.43,0,0,1,24,11.1H21V37.77l1.35,1.43A14.33,14.33,0,0,1,12.09,21.62Z"/></g><g class="cls-112"><path class="cls-49" d="M12.24,21.69a14.07,14.07,0,0,1,6.61-8.64A15.36,15.36,0,0,1,24,11.25H20.88V37.69L22.31,39A14.11,14.11,0,0,1,12.24,21.69Z"/></g><g class="cls-112"><path class="cls-50" d="M12.47,21.77a13.81,13.81,0,0,1,6.46-8.49,13.38,13.38,0,0,1,5-1.73H20.88V37.84l1.43,1.05A14.09,14.09,0,0,1,12.47,21.77Z"/></g><g class="cls-112"><path class="cls-51" d="M12.62,21.77A13.4,13.4,0,0,1,19,13.43a13,13,0,0,1,5-1.73H20.88V37.77l1.5.83A13.85,13.85,0,0,1,12.62,21.77Z"/></g><g class="cls-112"><path class="cls-52" d="M12.85,21.84a13.61,13.61,0,0,1,6.31-8.26A14.05,14.05,0,0,1,24,11.85H20.88V37.69l1.58.68A13.48,13.48,0,0,1,12.85,21.84Z"/></g><g class="cls-112"><path class="cls-53" d="M13.07,21.92a13.4,13.4,0,0,1,6.23-8.11,13.55,13.55,0,0,1,4.81-1.65H21V37.84l1.58.45A13.36,13.36,0,0,1,13.07,21.92Z"/></g><g class="cls-112"><path class="cls-54" d="M13.22,21.92A13.11,13.11,0,0,1,24,12.23H20.88V37.69l1.65.3A13.1,13.1,0,0,1,13.22,21.92Z"/></g><g class="cls-112"><path class="cls-55" d="M13.45,22a13.08,13.08,0,0,1,10.67-9.54H20.88V37.69l1.73.08A12.82,12.82,0,0,1,13.45,22Z"/></g><g class="cls-112"><path class="cls-55" d="M13.6,22.07a12.67,12.67,0,0,1,5.93-7.74,12.8,12.8,0,0,1,4.58-1.58H20.88V37.69h1.73A12.85,12.85,0,0,1,13.6,22.07Z"/></g><g class="cls-112"><path class="cls-56" d="M13.82,22.07a12.68,12.68,0,0,1,5.86-7.66,12,12,0,0,1,4.51-1.58H20.88V37.39h1.8A12.44,12.44,0,0,1,13.82,22.07Z"/></g><g class="cls-112"><path class="cls-57" d="M14,22.14a12.42,12.42,0,0,1,5.71-7.51,11.62,11.62,0,0,1,4.43-1.58H20.88V37.24h1.88A12.3,12.3,0,0,1,14,22.14Z"/></g><g class="cls-112"><path class="cls-58" d="M14.2,22.22a11.74,11.74,0,0,1,5.63-7.36,13.07,13.07,0,0,1,4.36-1.5H20.88V37.09h1.88A12.21,12.21,0,0,1,14.2,22.22Z"/></g><g class="cls-112"><path class="cls-58" d="M14.42,22.22A12.16,12.16,0,0,1,20,14.93a12.51,12.51,0,0,1,4.36-1.5H21V36.79h2A11.86,11.86,0,0,1,14.42,22.22Z"/></g><g class="cls-112"><path class="cls-59" d="M14.57,22.29a11.93,11.93,0,0,1,9.77-8.64H21v23h2A11.73,11.73,0,0,1,14.57,22.29Z"/></g><g class="cls-112"><path class="cls-60" d="M14.8,22.37a11.28,11.28,0,0,1,5.33-7A11.64,11.64,0,0,1,24.34,14H21V36.57h2.1A11.64,11.64,0,0,1,14.8,22.37Z"/></g><g class="cls-112"><path class="cls-60" d="M15,22.37a11.71,11.71,0,0,1,5.26-6.91A11.27,11.27,0,0,1,24.41,14H21V36.19h2.1A11.16,11.16,0,0,1,15,22.37Z"/></g><g class="cls-112"><path class="cls-61" d="M15.17,22.44a10.81,10.81,0,0,1,5.18-6.76,10.9,10.9,0,0,1,4.06-1.43H21V36h2.1A11.11,11.11,0,0,1,15.17,22.44Z"/></g><g class="cls-112"><path class="cls-62" d="M15.4,22.52a10.75,10.75,0,0,1,5.11-6.69,10.44,10.44,0,0,1,4-1.35H21V35.89h2.25A10.87,10.87,0,0,1,15.4,22.52Z"/></g><g class="cls-112"><path class="cls-63" d="M15.55,22.59a10.76,10.76,0,0,1,5-6.54,11.49,11.49,0,0,1,3.91-1.35H20.88v21h2.25A10.74,10.74,0,0,1,15.55,22.59Z"/></g><g class="cls-112"><path class="cls-63" d="M15.77,22.59a10.55,10.55,0,0,1,4.88-6.38,11.1,11.1,0,0,1,3.83-1.35H21V35.44h2.33A10.46,10.46,0,0,1,15.77,22.59Z"/></g><g class="cls-112"><path class="cls-64" d="M16,22.67a10.29,10.29,0,0,1,4.81-6.31,9.3,9.3,0,0,1,3.76-1.28H21V35.29h2.4A10.26,10.26,0,0,1,16,22.67Z"/></g><g class="cls-112"><path class="cls-65" d="M16.15,22.74a10.22,10.22,0,0,1,8.41-7.44H21V35.14h2.4A10.18,10.18,0,0,1,16.15,22.74Z"/></g><g class="cls-112"><path class="cls-65" d="M16.38,22.74a9.82,9.82,0,0,1,4.58-6h-.08V34.91h2.48A9.93,9.93,0,0,1,16.38,22.74Z"/></g><g class="cls-112"><path class="cls-66" d="M16.53,22.82A9.56,9.56,0,0,1,21,16.89h-.15v17.8h2.55A9.72,9.72,0,0,1,16.53,22.82Z"/></g><g class="cls-112"><path class="cls-67" d="M16.75,22.89a9.41,9.41,0,0,1,4.43-5.78H21V34.54h2.55A9.52,9.52,0,0,1,16.75,22.89Z"/></g><g class="cls-112"><path class="cls-68" d="M17,22.89a9.21,9.21,0,0,1,4.36-5.63H21V34.31h2.63A9.31,9.31,0,0,1,17,22.89Z"/></g><g class="cls-112"><path class="cls-69" d="M17.13,23a9.32,9.32,0,0,1,4.21-5.56h-.45V34.09h2.7A9.12,9.12,0,0,1,17.13,23Z"/></g><g class="cls-112"><path class="cls-70" d="M17.35,23a8.69,8.69,0,0,1,4.13-5.41H21v16.3h2.78A8.91,8.91,0,0,1,17.35,23Z"/></g><g class="cls-112"><path class="cls-71" d="M17.5,23a8.29,8.29,0,0,1,4.06-5.26h-.68V33.71h2.78A8.77,8.77,0,0,1,17.5,23Z"/></g><g class="cls-112"><path class="cls-71" d="M17.73,23.12a8.43,8.43,0,0,1,4-5.18H21V33.49h2.85A8.41,8.41,0,0,1,17.73,23.12Z"/></g><g class="cls-112"><path class="cls-72" d="M18,23.19a8.44,8.44,0,0,1,3.83-5H21V33.34h2.85A8.26,8.26,0,0,1,18,23.19Z"/></g><g class="cls-112"><path class="cls-73" d="M18.1,23.27a8.17,8.17,0,0,1,3.76-5h-1v14.8h2.93A8.06,8.06,0,0,1,18.1,23.27Z"/></g><g class="cls-112"><path class="cls-74" d="M18.33,23.27A8,8,0,0,1,22,18.46H21V32.89h3A7.79,7.79,0,0,1,18.33,23.27Z"/></g><g class="cls-112"><path class="cls-75" d="M18.48,23.35a7.55,7.55,0,0,1,3.61-4.66h-1.2V32.81H24A7.84,7.84,0,0,1,18.48,23.35Z"/></g><g class="cls-112"><path class="cls-76" d="M18.7,23.42a7.45,7.45,0,0,1,3.46-4.58H20.88V32.58H24A7.58,7.58,0,0,1,18.7,23.42Z"/></g><g class="cls-112"><path class="cls-77" d="M18.93,23.42A7.3,7.3,0,0,1,22.31,19H21V32.36h3.15A7.29,7.29,0,0,1,18.93,23.42Z"/></g><g class="cls-112"><path class="cls-78" d="M19.08,23.5a7.09,7.09,0,0,1,3.31-4.28h-1.5V32.13h3.23A7.1,7.1,0,0,1,19.08,23.5Z"/></g><g class="cls-112"><path class="cls-79" d="M19.31,23.57a6.77,6.77,0,0,1,3.23-4.21H21V32h3.23A6.87,6.87,0,0,1,19.31,23.57Z"/></g><g class="cls-112"><path class="cls-80" d="M19.46,23.57a6.57,6.57,0,0,1,3.08-4.06H20.88V31.76h3.31A6.72,6.72,0,0,1,19.46,23.57Z"/></g><g class="cls-112"><path class="cls-81" d="M19.68,23.65a6.36,6.36,0,0,1,3-3.91h-1.8V31.61h3.38A6.55,6.55,0,0,1,19.68,23.65Z"/></g><g class="cls-112"><path class="cls-82" d="M19.91,23.72a6.31,6.31,0,0,1,2.93-3.83H21V31.38h3.46A6.23,6.23,0,0,1,19.91,23.72Z"/></g><g class="cls-112"><path class="cls-83" d="M20.06,23.72A6,6,0,0,1,22.91,20H21V31.16h3.46A6.1,6.1,0,0,1,20.06,23.72Z"/></g><g class="cls-112"><path class="cls-84" d="M20.28,23.8A6.3,6.3,0,0,1,23,20.19h-2.1V30.93h3.53A5.8,5.8,0,0,1,20.28,23.8Z"/></g><g class="cls-112"><path class="cls-85" d="M20.43,23.87a5.58,5.58,0,0,1,2.63-3.46H20.88V30.78h3.61A5.74,5.74,0,0,1,20.43,23.87Z"/></g><g class="cls-112"><path class="cls-85" d="M20.66,23.95a5.43,5.43,0,0,1,2.55-3.31H21v10h3.61A5.54,5.54,0,0,1,20.66,23.95Z"/></g><g class="cls-112"><path class="cls-86" d="M20.88,23.95a5.17,5.17,0,0,1,2.48-3.23H21v9.62h3.61A5.14,5.14,0,0,1,20.88,23.95Z"/></g><g class="cls-112"><path class="cls-87" d="M20.88,24v6.16h3.76A5.08,5.08,0,0,1,21,24Z"/></g><g class="cls-112"><path class="cls-88" d="M20.88,24.1V30h3.76a4.91,4.91,0,0,1-3.46-5.93Z"/></g><g class="cls-112"><path class="cls-90" d="M20.88,24.1v5.71h3.83a4.67,4.67,0,0,1-3.31-5.71Z"/></g><g class="cls-113"><rect class="cls-114" x="23.74" y="22.22" width="4.58" height="4.58"/></g><g class="cls-115"><circle class="cls-114" cx="26.01" cy="24.56" r="2.03" transform="translate(-8.53 15.25) rotate(-28.27)"/></g><g class="cls-115"><circle class="cls-116" cx="26.01" cy="24.56" r="2.03" transform="translate(-8.53 15.25) rotate(-28.27)"/></g><g class="cls-115"><circle class="cls-117" cx="26.01" cy="24.56" r="2.03" transform="translate(-8.53 15.25) rotate(-28.27)"/></g><g class="cls-115"><circle class="cls-118" cx="26.01" cy="24.56" r="2.03" transform="translate(-8.53 15.25) rotate(-28.27)"/></g><g class="cls-115"><circle class="cls-119" cx="26.01" cy="24.56" r="1.95" transform="translate(-8.53 15.25) rotate(-28.27)"/></g><g class="cls-115"><circle class="cls-120" cx="26.01" cy="24.56" r="1.95" transform="translate(-8.53 15.25) rotate(-28.27)"/></g><g class="cls-115"><circle class="cls-120" cx="26.01" cy="24.56" r="1.95" transform="translate(-8.53 15.25) rotate(-28.27)"/></g><g class="cls-115"><circle class="cls-121" cx="26.01" cy="24.56" r="1.88" transform="translate(-8.53 15.25) rotate(-28.27)"/></g><g class="cls-115"><circle class="cls-122" cx="26.01" cy="24.56" r="1.88" transform="translate(-8.53 15.25) rotate(-28.27)"/></g><g class="cls-115"><circle class="cls-123" cx="26.01" cy="24.56" r="1.88" transform="translate(-8.53 15.25) rotate(-28.27)"/></g><g class="cls-115"><circle class="cls-124" cx="26.01" cy="24.56" r="1.88" transform="translate(-8.53 15.25) rotate(-28.27)"/></g><g class="cls-115"><circle class="cls-124" cx="26.01" cy="24.56" r="1.8" transform="translate(-8.53 15.25) rotate(-28.27)"/></g><g class="cls-115"><circle class="cls-125" cx="26.01" cy="24.56" r="1.8" transform="translate(-8.53 15.25) rotate(-28.27)"/></g><g class="cls-115"><circle class="cls-126" cx="26.01" cy="24.56" r="1.8" transform="translate(-8.53 15.25) rotate(-28.27)"/></g><g class="cls-115"><ellipse class="cls-126" cx="26.01" cy="24.56" rx="1.8" ry="1.73" transform="translate(-8.53 15.25) rotate(-28.27)"/></g><g class="cls-115"><circle class="cls-127" cx="26.01" cy="24.56" r="1.73" transform="translate(-8.53 15.25) rotate(-28.27)"/></g><g class="cls-115"><circle class="cls-127" cx="26.01" cy="24.56" r="1.73" transform="translate(-8.53 15.25) rotate(-28.27)"/></g><g class="cls-115"><circle class="cls-128" cx="26.01" cy="24.56" r="1.73" transform="translate(-8.53 15.25) rotate(-28.27)"/></g><g class="cls-115"><circle class="cls-129" cx="26.01" cy="24.56" r="1.65" transform="translate(-8.53 15.25) rotate(-28.27)"/></g><g class="cls-115"><circle class="cls-129" cx="26.01" cy="24.56" r="1.65" transform="translate(-8.53 15.25) rotate(-28.27)"/></g><g class="cls-115"><circle class="cls-130" cx="26.01" cy="24.56" r="1.65" transform="translate(-8.53 15.25) rotate(-28.27)"/></g><g class="cls-115"><circle class="cls-131" cx="26.01" cy="24.56" r="1.65" transform="translate(-8.53 15.25) rotate(-28.27)"/></g><g class="cls-115"><circle class="cls-131" cx="26.01" cy="24.56" r="1.58" transform="translate(-8.53 15.25) rotate(-28.27)"/></g><g class="cls-115"><circle class="cls-132" cx="26.01" cy="24.56" r="1.58" transform="translate(-8.53 15.25) rotate(-28.27)"/></g><g class="cls-115"><circle class="cls-133" cx="26.01" cy="24.56" r="1.58" transform="translate(-8.53 15.25) rotate(-28.27)"/></g><g class="cls-115"><circle class="cls-133" cx="26.01" cy="24.56" r="1.5" transform="translate(-8.53 15.25) rotate(-28.27)"/></g><g class="cls-115"><circle class="cls-134" cx="26.01" cy="24.56" r="1.5" transform="translate(-8.53 15.25) rotate(-28.27)"/></g><g class="cls-115"><circle class="cls-135" cx="26.01" cy="24.56" r="1.5" transform="translate(-8.53 15.25) rotate(-28.27)"/></g><g class="cls-115"><circle class="cls-136" cx="26.01" cy="24.56" r="1.5" transform="translate(-8.53 15.25) rotate(-28.27)"/></g><g class="cls-115"><circle class="cls-137" cx="26.01" cy="24.56" r="1.43" transform="translate(-8.53 15.25) rotate(-28.27)"/></g><g class="cls-115"><circle class="cls-137" cx="26.01" cy="24.56" r="1.43" transform="translate(-8.53 15.25) rotate(-28.27)"/></g><g class="cls-115"><circle class="cls-138" cx="26.01" cy="24.56" r="1.43" transform="translate(-8.53 15.25) rotate(-28.27)"/></g><g class="cls-115"><circle class="cls-139" cx="26.01" cy="24.56" r="1.35" transform="translate(-8.53 15.25) rotate(-28.27)"/></g><g class="cls-115"><circle class="cls-140" cx="26.01" cy="24.56" r="1.35" transform="translate(-8.53 15.25) rotate(-28.27)"/></g><g class="cls-115"><circle class="cls-141" cx="26.01" cy="24.56" r="1.35" transform="translate(-8.53 15.25) rotate(-28.27)"/></g><g class="cls-115"><circle class="cls-141" cx="26.01" cy="24.56" r="1.35" transform="translate(-8.53 15.25) rotate(-28.27)"/></g><g class="cls-115"><circle class="cls-141" cx="26.01" cy="24.56" r="1.28" transform="translate(-8.53 15.25) rotate(-28.27)"/></g><g class="cls-115"><circle class="cls-142" cx="26.01" cy="24.56" r="1.28" transform="translate(-8.53 15.25) rotate(-28.27)"/></g><g class="cls-115"><circle class="cls-143" cx="26.01" cy="24.56" r="1.28" transform="translate(-8.53 15.25) rotate(-28.27)"/></g><g class="cls-115"><circle class="cls-144" cx="26.01" cy="24.56" r="1.2" transform="translate(-8.53 15.25) rotate(-28.27)"/></g><g class="cls-115"><circle class="cls-145" cx="26.01" cy="24.56" r="1.2" transform="translate(-8.53 15.25) rotate(-28.27)"/></g><g class="cls-115"><circle class="cls-146" cx="26.01" cy="24.56" r="1.2" transform="translate(-8.53 15.25) rotate(-28.27)"/></g><g class="cls-115"><circle class="cls-147" cx="26.01" cy="24.56" r="1.2" transform="translate(-8.53 15.25) rotate(-28.27)"/></g><g class="cls-115"><circle class="cls-147" cx="26.01" cy="24.56" r="1.13" transform="translate(-8.53 15.25) rotate(-28.27)"/></g><g class="cls-115"><circle class="cls-147" cx="26.01" cy="24.56" r="1.13" transform="translate(-8.53 15.25) rotate(-28.27)"/></g><g class="cls-115"><circle class="cls-148" cx="26.01" cy="24.56" r="1.13" transform="translate(-8.53 15.25) rotate(-28.27)"/></g><g class="cls-115"><circle class="cls-148" cx="26.01" cy="24.56" r="1.05" transform="translate(-8.53 15.25) rotate(-28.27)"/></g><g class="cls-115"><circle class="cls-148" cx="26.01" cy="24.56" r="1.05" transform="translate(-8.53 15.25) rotate(-28.27)"/></g><g class="cls-115"><circle class="cls-149" cx="26.01" cy="24.56" r="1.05" transform="translate(-8.53 15.25) rotate(-28.27)"/></g><g class="cls-115"><circle class="cls-149" cx="26.01" cy="24.56" r="1.05" transform="translate(-8.53 15.25) rotate(-28.27)"/></g><g class="cls-115"><circle class="cls-150" cx="26.01" cy="24.56" r="0.98" transform="translate(-8.53 15.25) rotate(-28.27)"/></g><g class="cls-115"><circle class="cls-151" cx="26.01" cy="24.56" r="0.98" transform="translate(-8.53 15.25) rotate(-28.27)"/></g><g class="cls-115"><circle class="cls-151" cx="26.01" cy="24.56" r="0.98" transform="translate(-8.53 15.25) rotate(-28.27)"/></g><g class="cls-115"><circle class="cls-152" cx="26.01" cy="24.56" r="0.9" transform="translate(-8.53 15.25) rotate(-28.27)"/></g><g class="cls-115"><circle class="cls-152" cx="26.01" cy="24.56" r="0.9" transform="translate(-8.53 15.25) rotate(-28.27)"/></g><g class="cls-115"><circle class="cls-153" cx="26.01" cy="24.56" r="0.9" transform="translate(-8.53 15.25) rotate(-28.27)"/></g><g class="cls-115"><circle class="cls-154" cx="26.01" cy="24.56" r="0.9" transform="translate(-8.53 15.25) rotate(-28.27)"/></g><g class="cls-115"><circle class="cls-154" cx="26.01" cy="24.56" r="0.83" transform="translate(-8.53 15.25) rotate(-28.27)"/></g><g class="cls-115"><circle class="cls-155" cx="26.01" cy="24.56" r="0.83" transform="translate(-8.53 15.25) rotate(-28.27)"/></g><g class="cls-115"><circle class="cls-155" cx="26.01" cy="24.56" r="0.83" transform="translate(-8.53 15.25) rotate(-28.27)"/></g><g class="cls-115"><circle class="cls-155" cx="26.01" cy="24.56" r="0.75" transform="translate(-8.53 15.25) rotate(-28.27)"/></g><g class="cls-115"><circle class="cls-156" cx="26.01" cy="24.56" r="0.75" transform="translate(-8.53 15.25) rotate(-28.27)"/></g><g class="cls-115"><circle class="cls-157" cx="26.01" cy="24.56" r="0.75" transform="translate(-8.53 15.25) rotate(-28.27)"/></g><g class="cls-115"><circle class="cls-157" cx="26.01" cy="24.56" r="0.75" transform="translate(-8.53 15.25) rotate(-28.27)"/></g><g class="cls-115"><circle class="cls-158" cx="26.01" cy="24.56" r="0.68" transform="translate(-8.53 15.25) rotate(-28.27)"/></g><g class="cls-115"><circle class="cls-159" cx="26.01" cy="24.56" r="0.68" transform="translate(-8.53 15.25) rotate(-28.27)"/></g><g class="cls-115"><circle class="cls-160" cx="26.01" cy="24.56" r="0.68" transform="translate(-8.53 15.25) rotate(-28.27)"/></g><g class="cls-115"><circle class="cls-161" cx="26.01" cy="24.56" r="0.6" transform="translate(-8.53 15.25) rotate(-28.27)"/></g><g class="cls-115"><circle class="cls-162" cx="26.01" cy="24.56" r="0.6" transform="translate(-8.53 15.25) rotate(-28.27)"/></g><g class="cls-115"><circle class="cls-163" cx="26.01" cy="24.56" r="0.6" transform="translate(-8.53 15.25) rotate(-28.27)"/></g><g class="cls-115"><circle class="cls-163" cx="26.01" cy="24.56" r="0.6" transform="translate(-8.53 15.25) rotate(-28.27)"/></g><g class="cls-115"><circle class="cls-164" cx="26.01" cy="24.56" r="0.53" transform="translate(-8.53 15.25) rotate(-28.27)"/></g><g class="cls-115"><circle class="cls-165" cx="26.01" cy="24.56" r="0.53" transform="translate(-8.53 15.25) rotate(-28.27)"/></g><g class="cls-115"><circle class="cls-165" cx="26.01" cy="24.56" r="0.53" transform="translate(-8.53 15.25) rotate(-28.27)"/></g><g class="cls-115"><circle class="cls-166" cx="26.01" cy="24.56" r="0.53" transform="translate(-8.53 15.25) rotate(-28.27)"/></g><g class="cls-115"><circle class="cls-167" cx="26.01" cy="24.56" r="0.45" transform="translate(-8.53 15.25) rotate(-28.27)"/></g><g class="cls-115"><circle class="cls-167" cx="26.01" cy="24.56" r="0.45" transform="translate(-8.53 15.25) rotate(-28.27)"/></g><g class="cls-115"><circle class="cls-168" cx="26.01" cy="24.56" r="0.45" transform="translate(-8.53 15.25) rotate(-28.27)"/></g><g class="cls-115"><circle class="cls-169" cx="26.01" cy="24.56" r="0.38" transform="translate(-8.53 15.25) rotate(-28.27)"/></g><g class="cls-115"><circle class="cls-169" cx="26.01" cy="24.56" r="0.38" transform="translate(-8.53 15.25) rotate(-28.27)"/></g><g class="cls-115"><circle class="cls-170" cx="26.01" cy="24.56" r="0.38" transform="translate(-8.53 15.25) rotate(-28.27)"/></g><g class="cls-115"><circle class="cls-171" cx="26.01" cy="24.56" r="0.38" transform="translate(-8.53 15.25) rotate(-28.27)"/></g><g class="cls-115"><circle class="cls-172" cx="26.01" cy="24.56" r="0.3" transform="translate(-8.53 15.25) rotate(-28.27)"/></g><g class="cls-115"><circle class="cls-172" cx="26.01" cy="24.56" r="0.3" transform="translate(-8.53 15.25) rotate(-28.27)"/></g><g class="cls-115"><circle class="cls-172" cx="26.01" cy="24.56" r="0.3" transform="translate(-8.53 15.25) rotate(-28.27)"/></g><g class="cls-115"><circle class="cls-173" cx="26.01" cy="24.56" r="0.23" transform="translate(-8.53 15.25) rotate(-28.27)"/></g><g class="cls-115"><circle class="cls-174" cx="26.01" cy="24.56" r="0.23" transform="translate(-8.53 15.25) rotate(-28.27)"/></g><g class="cls-115"><circle class="cls-174" cx="26.01" cy="24.56" r="0.23" transform="translate(-8.53 15.25) rotate(-28.27)"/></g><g class="cls-115"><circle class="cls-175" cx="26.01" cy="24.56" r="0.23" transform="translate(-8.53 15.25) rotate(-28.27)"/></g><g class="cls-115"><circle class="cls-175" cx="26.01" cy="24.56" r="0.15" transform="translate(-8.53 15.25) rotate(-28.27)"/></g><g class="cls-115"><circle class="cls-175" cx="26.01" cy="24.56" r="0.15" transform="translate(-8.53 15.25) rotate(-28.27)"/></g><g class="cls-115"><circle class="cls-176" cx="26.01" cy="24.56" r="0.15" transform="translate(-8.53 15.25) rotate(-28.27)"/></g><g class="cls-115"><circle class="cls-177" cx="26.01" cy="24.56" r="0.08" transform="translate(-8.53 15.25) rotate(-28.27)"/></g><g class="cls-115"><circle class="cls-177" cx="26.01" cy="24.56" r="0.08" transform="translate(-8.53 15.25) rotate(-28.27)"/></g><g class="cls-115"><circle class="cls-178" cx="26.01" cy="24.56" r="0.08" transform="translate(-8.53 15.25) rotate(-28.27)"/></g><g class="cls-115"><circle class="cls-179" cx="26.01" cy="24.56" r="0.08" transform="translate(-8.53 15.25) rotate(-28.27)"/></g></svg>